<svg xmlns="http://www.w3.org/2000/svg" viewBox="0 0 523 523">
  <defs>
    <style>
      .a {
        fill: #d87c38;
      }

      .b {
        fill: #fff;
      }
    </style>
  </defs>
  <path class="a" d="M126.5,375.918V169.242a2.759,2.759,0,0,0,.466-.763c3.945-18.177,16.167-28.061,34.736-28.062q65.154,0,130.308,0h3.948c-.536,1.164-.868,1.879-1.2,2.6-8.248,18.071.719,39.32,19.725,45.069,6.187,1.871,13.1,1.4,19.681,1.892,2.286.171,4.6.027,7.073.027,0,5.828-.1,11.137.019,16.44.465,20.339,17.151,35.1,37.209,32.662,4.147-.5,8.146-2.225,12.23-3.39a4.023,4.023,0,0,1,.12.759c0,45.582.082,91.164-.089,136.746-.052,13.883-10.551,26.625-24.084,30.247-1.552.415-3.1.851-4.647,1.278H155.324a11.662,11.662,0,0,0-1.644-.614q-18.839-4.047-25.409-22.15C127.559,380,127.084,377.94,126.5,375.918Zm115.748-20.929c-.8-1.13-1.451-2.011-2.057-2.923-7.972-11.995-15.9-24.02-23.92-35.981-3.742-5.58-10.249-6.117-14.117-1.045-10.964,14.38-21.789,28.866-32.649,43.325a7.757,7.757,0,0,0-1.139,8.1c1.77,4.14,5.161,5.3,9.443,5.292q80.486-.086,160.971-.039c.817,0,1.637.01,2.451-.049a8.1,8.1,0,0,0,7.455-6.208c.919-3.348-.5-5.926-2.5-8.417q-23.413-29.16-46.788-58.354c-4.855-6.054-10.456-5.959-15.121.258q-12.231,16.3-24.446,32.617C254.022,339.315,248.2,347.06,242.248,354.989Z"/>
  <path class="a" d="M440.5,160.043c-.618,1.49-1.118,3.044-1.875,4.46-3.192,5.976-8.337,8.8-15,8.848-9.707.068-19.416.019-29.124.02h-3.663v3.6c0,9.708.041,19.416-.014,29.124-.055,9.634-6.887,16.527-16.321,16.582-9.449.054-16.432-6.691-16.589-16.339-.156-9.6-.039-19.212-.041-28.817,0-1.216,0-2.431,0-4-1.254-.055-2.331-.144-3.409-.145-9.81-.013-19.621.067-29.43-.036-7.43-.078-13.307-4.189-15.677-10.669a16.646,16.646,0,0,1,4.356-17.977,15.878,15.878,0,0,1,11.151-4.288c10.821.031,21.642.01,32.826.01.067-1.228.174-2.3.176-3.37.014-8.481.33-16.979-.075-25.441-.5-10.348,3.117-17.651,13.413-20.864h6.133c10.879,4.211,13.5,8.1,13.5,20.012v29.662h3.618c9.7,0,19.4-.015,29.1.017a19.7,19.7,0,0,1,4.247.385c7.057,1.594,10.758,6.506,12.7,13.092Z"/>
  <path class="b" d="M517.5,108.5c-3.174-10.739-9.21-18.748-20.717-21.348a32.107,32.107,0,0,0-6.924-.626c-15.814-.052-31.629-.028-47.443-.029h-5.9V38.131c0-19.426-4.277-25.765-22.016-32.631h103Z"/>
  <path class="b" d="M5.5,470.5c.953,3.3,1.726,6.66,2.888,9.882Q19.042,509.936,49.819,516.5a19,19,0,0,1,2.681,1H5.5Z"/>
  <path class="a" d="M486.833,523H36.167A36.208,36.208,0,0,1,0,486.833V36.167A36.207,36.207,0,0,1,36.167,0H486.833A36.208,36.208,0,0,1,523,36.167V486.833A36.209,36.209,0,0,1,486.833,523ZM36.167,11A25.2,25.2,0,0,0,11,36.167V486.833A25.2,25.2,0,0,0,36.167,512H486.833A25.2,25.2,0,0,0,512,486.833V36.167A25.2,25.2,0,0,0,486.833,11Z"/>
</svg>
