<svg xmlns="http://www.w3.org/2000/svg" viewBox="0 0 392 392">
  <defs>
    <style>
      .a {
        fill: #79b473;
      }

      .b {
        fill: #fff;
      }
    </style>
  </defs>
  <circle class="a" cx="196" cy="196" r="196"/>
  <path class="b" d="M289,192.356c-.87,2.1-1.573,4.284-2.638,6.277-4.493,8.411-11.734,12.386-21.117,12.452-13.661.1-27.325.027-40.987.028H219.1v5.063c0,13.662.058,27.325-.019,40.987-.077,13.559-9.693,23.26-22.97,23.337-13.3.077-23.125-9.416-23.346-23-.219-13.515-.054-27.037-.058-40.556,0-1.71,0-3.42,0-5.622-1.766-.079-3.282-.2-4.8-.2-13.807-.017-27.614.094-41.419-.051-10.456-.11-18.727-5.9-22.063-15.014a23.428,23.428,0,0,1,6.131-25.3,22.343,22.343,0,0,1,15.693-6.035c15.229.043,30.458.015,46.2.015.094-1.729.244-3.236.247-4.743.019-11.937.465-23.9-.105-35.805-.7-14.563,4.387-24.841,18.877-29.363H200.1c15.31,5.926,19,11.4,19,28.164v41.745H224.2c13.649,0,27.3-.021,40.948.024a27.688,27.688,0,0,1,5.976.541c9.932,2.243,15.141,9.156,17.881,18.425Z"/>
</svg>
