<svg xmlns="http://www.w3.org/2000/svg" xmlns:xlink="http://www.w3.org/1999/xlink" viewBox="0 0 420.372 420.372">
  <defs>
    <style>
      .a {
        fill: url(#a);
      }

      .b {
        fill: #bcaf9b;
      }

      .c {
        fill: #d8cfc0;
      }

      .d {
        fill: none;
        stroke: #b7aa98;
        stroke-linecap: round;
        stroke-linejoin: round;
        stroke-width: 0;
      }
    </style>
    <radialGradient id="a" cx="210.186" cy="210.186" r="210.186" gradientUnits="userSpaceOnUse">
      <stop offset="0" stop-color="#a05221"/>
      <stop offset="0.412" stop-color="#a25422"/>
      <stop offset="0.621" stop-color="#aa5925"/>
      <stop offset="0.785" stop-color="#b7632b"/>
      <stop offset="0.923" stop-color="#ca7132"/>
      <stop offset="1" stop-color="#d87c38"/>
    </radialGradient>
  </defs>
  <circle class="a" cx="210.186" cy="210.186" r="210.186"/>
  <g>
    <path class="b" d="M253.906,285.5c4.319-3.512,6.02-9.612,6.36-17.059-5.367,4.431-10.757,7.719-16.185,8.927Z"/>
    <path class="b" d="M269.483,298.246c5.667-3.99,8.038-11.076,8.693-19.771-7.045,5.037-14.084,8.736-21.113,10Z"/>
    <path class="b" d="M287.793,308.746c4.868-4.934,5.941-12.328,5.041-21-6.038,6.209-12.308,11.1-19,13.6Z"/>
    <path class="b" d="M311.441,295.981c-5.73,6.5-11.755,11.685-18.318,14.5l14.3,6.717C312.047,312.038,312.76,304.6,311.441,295.981Z"/>
    <path class="b" d="M318.021,287.745c12.465-.677,20.775-7.576,24.577-15.491l-13.775.7C329.029,276.352,323.484,282.065,318.021,287.745Z"/>
    <path class="b" d="M309.306,272.254c-.526,5.32-5.37,11.261-10.456,13.243,10.986,3.612,19.336-4.05,23-12.2Z"/>
    <path class="b" d="M282.449,283.323c10.032-1.224,16.8-5.228,20.128-12.154l-11.511-1.409C291.824,274.7,287.218,279.023,282.449,283.323Z"/>
    <path class="c" d="M270.83,302c-13.041-8.886-52.872-41.86-78.42-70.01-2.662-2.587-5.207-5.3-7.615-8.091-1.955-2.268-3.849-4.591-5.883-6.788-1.015-1.1-2.063-2.161-3.168-3.166a23.073,23.073,0,0,0-3.029-2.411,61.084,61.084,0,0,0-7.216-4.355q-1.128-.566-2.279-1.082l-.71-.313-.251-.111c-.064-.024-.144-.056-.261-.1-1.266-.5-2.535-.983-3.822-1.423-10.9-3.726-22.413-5.284-33.61-7.84a89.928,89.928,0,0,1-12.168-3.653,81.115,81.115,0,0,1-9.882-3.321,84.9,84.9,0,0,1-19.851-11.482c-2.818-2.19-5.429-4.617-8.022-7.065-1.247-1.177-2.446-2.395-3.651-3.6-13.664,4.273-20.246,16.013-17.3,30.628,5.727,28.452,38.39,67.739,58.149,83.765,10.2,7.085,50.44,11.535,86.884,29.207,33.994,16.483,58.768,42.9,75.114,42.9,33.869,0,40.875-17.5,40.875-25.424S286.77,312.865,270.83,302ZM132.282,257.717c-8.217,2.714-17.646-3.468-21.061-13.807s.478-20.921,8.695-23.635,17.646,3.468,21.061,13.807S140.5,255,132.282,257.717Z"/>
    <path class="c" d="M263.972,130.007a125.061,125.061,0,0,0-29.03-40.239C171.03,28.784,55.058,102.223,65.972,153.794,94.138,180.886,90,176.258,115.638,187.7s42.074,8.242,57.506,15.364,22.678,19.155,41.338,38.492S330.562,281.044,353,265.816C395.774,226.449,336.277,169.96,263.972,130.007Zm-31.5,62.985a20.409,20.409,0,0,1-11.546-3.471,23.394,23.394,0,0,1-7.4-5.3,29.255,29.255,0,0,1-6.489-12,112.96,112.96,0,0,1-.3-12.932c.138-5.119.432-10.233.516-15.354a51.1,51.1,0,0,0-1.167-13.659,18.582,18.582,0,0,0-8.262-11.549,12.67,12.67,0,0,0-3.165-1.4,13,13,0,0,0-1.566-.609,7.272,7.272,0,0,0-8.4,3.024c-.1.016-.2.025-.3.045a26.582,26.582,0,0,0-1.282,3c-.067.191-.116.382-.178.573a21.188,21.188,0,0,0-1.548,7.6c-.268,2.612-.344,5.254-.431,7.985-.376,11.851-3.711,25.427-16.09,30.018-9.427,3.5-20.427-.3-26.764-7.839-6.946-8.269-7.891-19.859-4.945-29.96a49.394,49.394,0,0,1,11.181-19.568c7.357-9.114,17.612-14.586,30.3-16.887,9.133-1.656,18.331-2.037,26.8,2.36,6.2,3.22,11.384,8.245,15.647,13.758.921,1.095,1.8,2.227,2.634,3.4a69.992,69.992,0,0,1,9.973,21.065c1.059,2.781,2.162,5.715,2.994,8.7a26.542,26.542,0,0,0,6.942,8.136c5.06,3.934,10.034,7.982,11.893,14.431C255.09,178.927,245.394,192.629,232.476,192.992Zm58.152,21c-8.328,12.767-24.382,3.993-31.14-5.263-3.422-4.688-6.017-10.5-3.738-16.245a11.278,11.278,0,0,1,6.194-6.379c4.781-3.042,10.967-2.4,15.972.142C287.083,190.91,297.322,203.734,290.628,214Zm54.387,18.992c-.509-.29-1.01-.593-1.494-.922-.162-.109-.321-.221-.48-.334l-.357-.262c-.147-.121-.53-.431-.627-.513q-1.109-.94-2.129-1.978c-1.2-1.218-2.279-2.535-3.361-3.857-.186-.227-.627-.852-.214-.263-.237-.338-.488-.666-.723-1.006q-.7-1.019-1.342-2.081c-.856-1.422-1.654-2.885-2.4-4.368-.507-1.008-.98-2.031-1.444-3.059-1.165-3.4-2.177-6.835-3.275-10.262a35.251,35.251,0,0,0-4.014-8.936,3.83,3.83,0,0,1,.951,0c8.225,1.075,15.728,3.891,21.527,10.033,4.688,4.966,11.333,14.791,9.458,21.983C353.578,232.976,349.352,234.115,345.015,232.988Z"/>
  </g>
  <g>
    <path class="b" d="M230.936,136.089c-.322-2.376-.617-4.754-.9-7.134q-.159-1.329-.323-2.659l-.051-.116c-.03-.068-.065-.149-.1-.231-.257-1.44-.493-2.885-.729-4.333a53.644,53.644,0,0,0-3.883-13.757,39.943,39.943,0,0,0-6.169-9.5c-.046-.063-.1-.123-.143-.186-4.491-3.9-9.369-7.374-15.231-9.461a46.28,46.28,0,0,0-9.5-2.224,107.91,107.91,0,0,0-15.54.381,60.311,60.311,0,0,0-15.389,3.959c-3.789,1.5-7.6,2.926-11.312,4.6a66.826,66.826,0,0,0-21.187,20.7c-6.537,10.222-10.986,23.963-6.489,35.848,4,10.564,13.639,17.945,24.511,20.452,6.394,1.475,13.7,1.713,19.617-1.53a13.842,13.842,0,0,0,6.93-9.967,20.9,20.9,0,0,1-10.168,8.027c-9.427,3.5-20.427-.3-26.764-7.839-6.946-8.269-7.891-19.859-4.945-29.96a49.394,49.394,0,0,1,11.181-19.568c7.357-9.114,17.612-14.586,30.3-16.887,9.133-1.656,18.331-2.037,26.8,2.36,6.2,3.22,11.384,8.245,15.647,13.758.921,1.095,1.8,2.227,2.634,3.4a69.992,69.992,0,0,1,9.973,21.065c.661,1.736,1.332,3.536,1.951,5.365C231.383,139.136,231.142,137.614,230.936,136.089Z"/>
    <path class="d" d="M153.522,110.2c-.07.053-.168.132-.236.188"/>
    <path class="b" d="M216.04,257.384c2.214,1.719,4.492,3.342,6.843,4.843-10.733-9.838-21.487-20.333-30.473-30.235-2.662-2.587-5.207-5.3-7.615-8.091-1.955-2.268-3.849-4.591-5.883-6.788-1.015-1.1-2.063-2.161-3.168-3.166a23.073,23.073,0,0,0-3.029-2.411,61.084,61.084,0,0,0-7.216-4.355q-1.128-.566-2.279-1.082l-.71-.313-.251-.111c-.064-.024-.144-.056-.261-.1-1.266-.5-2.535-.983-3.822-1.423-10.9-3.726-22.413-5.284-33.61-7.84a89.928,89.928,0,0,1-12.168-3.653,81.115,81.115,0,0,1-9.882-3.321,84.9,84.9,0,0,1-19.851-11.482c-2.818-2.19-5.429-4.617-8.022-7.065-1.247-1.177-2.446-2.395-3.651-3.6a28.885,28.885,0,0,0-7.307,3.43c.3.2.6.39.886.595.18.127.358.257.535.387.079.058.324.244.441.333,1.862,1.469,3.516,3.3,5.519,4.568.244.154.5.284.746.441.019.012.188.153.273.215.085.127.333.449.367.49.141.169.277.346.425.509a24.627,24.627,0,0,0,2.556,2.237q2.685,2.218,5.49,4.288a109.024,109.024,0,0,0,10.514,6.914,117.09,117.09,0,0,0,23.477,10.2,112.273,112.273,0,0,0,12.2,3.069c3.805.733,7.4,1.091,11.082,1.506,1.939.418,3.884.814,5.828,1.205,2.344.471,4.688.943,7.029,1.433q1.41.3,2.814.616c1.6.621,3.18,1.26,4.742,1.988a117.994,117.994,0,0,1,21.5,12.8l.36.274.271.212c.356.282.712.563,1.066.847q1.14.915,2.258,1.857,2.246,1.887,4.42,3.857c1.929,1.739,3.829,3.509,5.72,5.288C201.2,243.923,208.1,251.222,216.04,257.384Z"/>
    <path class="b" d="M276.223,225.736a28.655,28.655,0,0,0,3.174.783c.654.114,1.318.248,1.982.314a14.387,14.387,0,0,0,1.938.419,11.239,11.239,0,0,0,2.5.067,15.438,15.438,0,0,0,5.666-.274c.451-.153.906-.321,1.365-.51a19.415,19.415,0,0,0,7.448-5.522,14.08,14.08,0,0,0,1.195-1.78q.318-.55.593-1.123a5.548,5.548,0,0,0,.244-.54,18.582,18.582,0,0,0,.751-2.407q.15-.62.264-1.246c.016-.091.09-.6.1-.664a28.493,28.493,0,0,0,.084-5.167q-.047-.68-.118-1.358c0-.043-.047-.327-.069-.483-.024-.1-.057-.253-.056-.252-.189-.728-.339-1.463-.554-2.186-.224-.756-.486-1.5-.772-2.232l-.02-.052c-.066-.149-.132-.3-.2-.445q-.206-.444-.427-.882a28.291,28.291,0,0,0-2.36-3.844c-.086-.118-.174-.234-.261-.35l-.021-.026c-.238-.286-.472-.577-.715-.859q-.68-.787-1.408-1.531c-1.013-1.037-2.087-2.023-3.2-2.957-.332-.28-.67-.552-1.008-.825l-.113-.092-.121-.088c-.616-.456-1.235-.907-1.867-1.34l-.032-.022c-.56-.315-1.122-.626-1.7-.91q-1.029-.508-2.076-.977c-.122-.051-.424-.179-.54-.224q-.489-.192-.985-.368a33.612,33.612,0,0,0-5.141-1.421,26.472,26.472,0,0,0-5.329.02c-.484.023-.966.076-1.449.117a20.449,20.449,0,0,1,4.923,1.752c9.167,4.659,19.406,17.483,12.712,27.745-8.328,12.767-24.382,3.993-31.14-5.263-2.626-3.6-4.756-7.86-4.579-12.243-.136.531-.255,1.066-.351,1.6a20.215,20.215,0,0,0,2.467,13.256,27.464,27.464,0,0,0,9.207,9.487,42.55,42.55,0,0,0,5.767,3.11A20.875,20.875,0,0,0,276.223,225.736Z"/>
  </g>
</svg>
