<?xml version="1.0" encoding="utf-8"?>
<!-- Generator: Adobe Illustrator 25.1.0, SVG Export Plug-In . SVG Version: 6.00 Build 0)  -->
<svg version="1.1" xmlns="http://www.w3.org/2000/svg" xmlns:xlink="http://www.w3.org/1999/xlink" x="0px" y="0px"
	 viewBox="0 0 1920 1080" style="enable-background:new 0 0 1920 1080;" xml:space="preserve">
<style type="text/css">
	.st0{fill:#D97D39;}
	.st1{fill:#B75F28;}
	.st2{fill:#D87C38;}
	.st3{fill:#E8B081;}
	.st4{fill:#D97D3A;}
	.st5{fill:#A05221;}
	.st6{fill:#B65F28;}
	.st7{fill:#D8CFC0;}
	.st8{fill:#D8CEBF;}
	.st9{fill:#DB8A48;}
</style>
<g id="Layer_1">
	<rect class="st0" width="1920" height="1080"/>
	<rect y="46" class="st1" width="1920" height="1034"/>
	<rect y="165" class="st2" width="1920" height="915"/>
	<rect y="259" class="st3" width="1920" height="821"/>
	<rect y="466" class="st4" width="1920" height="614"/>
	<rect y="511" class="st5" width="1920" height="569"/>
	<rect y="708" class="st6" width="1920" height="372"/>
</g>
<g id="Layer_3">
	<path class="st7" d="M303.65,788.54c-1.34,0.45-2.41,0.86-3.52,1.15c-0.95,0.25-1.93,0.49-2.91,0.52c-3.37,0.11-5.4-2.4-4.47-5.61
		c0.5-1.73,1.28-3.39,2.01-5.05c1.02-2.3,0.98-4.52-0.43-6.6c-1.89-2.78-1.96-5.65-0.58-8.61c2.11-4.52,2.91-9.38,4.12-14.17
		c1.74-6.89,4.47-13.55,7.13-20.16c1.5-3.72,4.66-6.2,8.17-8.12c1.3-0.71,2.62-1.39,3.96-2.03c4.09-1.93,7.69-4.42,10.27-8.28
		c2.58-3.85,6.52-5.39,10.92-6.05c2.72-0.41,5.44-0.84,8.14-1.33c2.43-0.44,4.29-1.74,5.22-4.08c1.41-3.55,4.25-5.31,7.68-6.45
		c5.05-1.69,10.3-1.64,15.51-1.84c11.27-0.43,22.55-0.41,33.78,0.82c6.86,0.75,13.25-0.41,19.04-4.33c1.09-0.74,2.3-1.29,3.47-1.9
		c3.09-1.62,6.32-2.21,9.73-1.17c3.15,0.95,5.92,0.62,8.26-2c1.17-1.32,2.9-1.4,4.6-1.39c5.88,0.07,11.77,0.41,17.62,0.04
		c8.88-0.55,17.75-1.48,26.59-2.5c6.88-0.8,13.34,0.82,19.77,2.77c5.75,1.75,11.06,4.55,15.66,8.3c2.83,2.3,5.07,5.48,7.07,8.6
		c3.45,5.39,5.19,11.49,6.19,17.79c0.35,2.22,0.23,4.05-2.28,5.29c-1.81,0.9-3.17,2.68-4.76,4.03c-0.74,0.63-0.69,1.29-0.51,2.19
		c0.78,3.75,1.54,7.52,2.07,11.32c0.16,1.17-0.21,2.53-0.7,3.65c-0.68,1.57-1.48,1.51-2.46,0.09c-1.96-2.85-3.95-5.69-5.93-8.52
		c-0.18-0.26-0.41-0.5-0.72-0.89c-2.01,1.52-3.99,2.97-5.87,4.54c-0.26,0.21-0.14,1.09,0.05,1.58c0.98,2.57,2.12,5.07,3.01,7.67
		c0.42,1.22,0.6,2.59,0.58,3.89c-0.04,2.19-1.53,2.99-3.14,1.54c-2.77-2.49-5.25-5.3-7.9-7.92c-0.39-0.38-1.1-0.79-1.55-0.68
		c-1.06,0.25-1.24,0.96-0.65,1.99c3.03,5.36,4.06,11.24,4.29,17.29c0.05,1.47-0.09,2.98-0.37,4.42c-0.19,1.02-0.76,1.96-1.16,2.94
		c-0.17-0.01-0.34-0.03-0.52-0.04c-0.72-1.63-1.44-3.26-2.15-4.89c-1.81-4.13-3.61-8.26-5.45-12.37c-0.29-0.65-0.71-1.24-1.11-1.83
		c-1.5-2.23-1.47-2.17-3.77-0.83c-0.99,0.58-1.03,1.14-0.7,2.13c0.9,2.65,1.79,5.32,2.47,8.04c0.64,2.59,0.72,5.23-0.22,7.81
		c-0.13,0.36-0.27,0.72-0.44,1.06c-0.07,0.13-0.23,0.22-0.5,0.47c-3.06-4.87-5.63-10.08-10.28-13.63c-0.17,0.07-0.34,0.13-0.51,0.2
		c0.12,0.53,0.23,1.07,0.35,1.6c1.12,4.7,1.7,9.44,0.68,14.22c-0.33,1.56-1.09,3.03-1.65,4.53c-0.23,0.02-0.46,0.03-0.68,0.05
		c-0.69-1.19-1.57-2.31-2.04-3.58c-1.45-3.87-3.93-6.94-6.94-9.7c-0.85-0.78-1.5-0.89-2.44-0.31c-1.17,0.72-2.89,1.06-3.46,2.07
		c-0.53,0.94,0.18,2.55,0.27,3.87c0.29,4.49-0.31,8.89-1.59,13.19c-0.18,0.61-0.56,1.17-0.98,2.03c-0.65-0.79-1.16-1.39-1.64-2.02
		c-2.51-3.33-4.99-6.7-7.55-9.99c-0.32-0.41-1.05-0.49-1.59-0.72c-0.08,0.55-0.25,1.1-0.22,1.63c0.2,3.56,0.57,7.11,0.61,10.66
		c0.01,1.24-0.75,2.49-1.16,3.73c-0.26,0.03-0.52,0.05-0.78,0.08c-2.61-4.06-5.22-8.12-7.84-12.18c-0.15,0.02-0.31,0.04-0.46,0.07
		c-0.22,2.02-0.33,4.06-0.69,6.05c-0.36,1.97-0.99,3.89-1.5,5.83c-0.24,0.06-0.49,0.12-0.73,0.18c-0.75-1.13-1.61-2.2-2.23-3.4
		c-0.96-1.85-1.73-3.79-2.64-5.66c-0.51-1.03-1.36-1.32-2.57-1.28c-3.73,0.11-7.48,0.17-11.21-0.02
		c-10.97-0.56-21.35,1.7-31.15,6.54c-4.86,2.4-9.77,4.1-15.29,4.02c-4.29-0.06-7.73,1.64-9.12,6.12c-0.11,0.37-0.27,0.73-0.33,1.1
		c-0.51,2.77-0.96,3.13-3.8,2.97c-0.11-0.01-0.22,0.01-0.33-0.02c-6.08-1.5-11.6,0.13-17.03,2.78c-3.8,1.86-7.72,3.49-11.66,5.03
		c-6.07,2.38-11.22,6.2-16.49,9.91c-2.38,1.68-5.21,2.75-7.91,3.91c-1.27,0.55-2.2-0.01-3.07-1.32c-1.7-2.55-3.69-4.93-5.75-7.21
		c-3.3-3.65-5.41-7.86-6.52-12.61c-0.67-2.89-1.33-5.79-2.01-8.68C304.17,790.16,303.92,789.45,303.65,788.54z M437.13,728.39
		c-1.64-6.7-6.17-11.77-12.75-14.84c-3.75-1.75-7.79-3.18-11.85-3.87c-8.88-1.5-17.85-2.5-26.8-3.55c-1.92-0.23-3.96,0.01-5.88,0.39
		c-1.7,0.33-1.91,1.63-0.57,2.67c6.86,5.35,11.7,12.27,14.88,20.23c2.67,6.67,4.58,13.64,7.01,20.41c0.64,1.8,1.6,3.82,3.04,4.93
		c4.77,3.7,10.38,4.92,16,2.61c7.17-2.95,12.28-8.4,15.63-15.38C437.82,737.85,438.2,733.45,437.13,728.39z M353.77,730.06
		c0-0.01-0.01-0.03-0.01-0.04c-0.27,0.04-0.54,0.08-0.82,0.13c-3.64,0.65-6.26,3.79-6.1,7.3c0.16,3.37,2.57,5.39,6.69,5.62
		c1.54,0.09,3.09,0.08,4.61,0.27c3.68,0.46,4.84,2.44,3.51,5.88c-0.32,0.82-0.75,1.59-1.16,2.37c-0.73,1.42-1.56,2.79-2.2,4.24
		c-2.56,5.79-0.03,11.92,5.79,13.83c3.96,1.3,8.01,1.3,12.04,0.2c2.93-0.8,5.03-2.61,5.81-5.54c1.13-4.24,2.29-8.51,2.95-12.84
		c0.87-5.73-0.71-11-4.66-15.27c-3.05-3.29-6.35-6.4-9.78-9.3c-3.04-2.57-6.55-4.45-10.56-5.18c-1.78-0.33-2.43,0.22-2.44,2.06
		c0,1.15,0.11,2.31,0.11,3.46c0.01,1.27-0.64,2.07-1.87,2.38C355.07,729.8,354.42,729.92,353.77,730.06z M496.4,697.26
		c0,0.2,0,0.41,0,0.61c1.32,0.18,2.64,0.49,3.96,0.53c6.44,0.2,12.59,1.65,18.55,4.06c1.31,0.53,2.7,0.94,4.09,1.22
		c1.59,0.32,2.91-0.26,3.81-1.67c2.4-3.78,1.26-7.72-2.83-9.55c-0.94-0.42-1.96-0.7-2.97-0.96
		C511.78,689.08,504.12,693.31,496.4,697.26z M462.87,719.66c-1.48,0.57-3.04,0.99-4.43,1.73c-3.55,1.89-3.92,5.69-0.79,8.21
		c3.51,2.82,7.41,3.41,11.59,1.58c2.96-1.3,5.93-2.61,8.85-4.01c0.88-0.42,2.3-1.24,2.25-1.73c-0.11-0.97-1.03-1.89-1.73-2.72
		c-0.37-0.44-1-0.66-1.52-0.97C472.63,719.12,467.9,718.6,462.87,719.66z"/>
	<path class="st7" d="M442.06,819.68c0.53-2.37,1.06-4.74,1.59-7.1c0.19-0.02,0.38-0.03,0.57-0.05c0.36,0.44,0.74,0.86,1.07,1.32
		c1.22,1.69,2.68,3.28,3.59,5.13c2.01,4.1,6.05,4.23,9.77,5.57c0.27-2.04,0.52-3.85,0.76-5.66c0.18-0.08,0.36-0.16,0.54-0.24
		c1.11,1.65,2.51,3.18,3.25,4.98c1.02,2.47,2.72,3.23,5.42,3.04c0.88-5.1,0.06-10.25-0.42-15.4c0.13-0.09,0.27-0.17,0.4-0.26
		c0.72,1,1.62,1.92,2.14,3.02c1.5,3.18,2.84,6.44,4.25,9.66c1.94,4.43,2.25,4.6,7.06,4.03c0.98-3.81,1.95-7.56,2.92-11.31
		c0.21-0.04,0.42-0.07,0.63-0.11c1.39,3.71,2.86,7.39,4.13,11.14c0.39,1.15,0.81,1.76,2.06,1.87c1.53,0.14,3.03,0.47,4.81,0.77
		c0.87-5.7,0.53-11.32,0.37-16.93c0.13-0.08,0.27-0.16,0.4-0.24c0.59,0.65,1.38,1.2,1.73,1.96c0.99,2.14,1.94,4.32,2.63,6.57
		c0.81,2.62,1.36,5.33,1.95,8.02c0.2,0.93,0.5,1.48,1.58,1.42c4.77-0.28,9.54-0.54,14.32-0.77c1.26-0.06,1.72-0.68,1.75-1.86
		c0.04-1.54,0.13-3.08,0.22-4.61c0.06-1.04-0.02-2.14,0.28-3.11c0.3-0.97,0.98-1.83,1.5-2.74c0.93,0.57,2.18,0.92,2.71,1.74
		c1.31,2.02,2.28,4.25,3.38,6.4c0.19,0.38,0.36,0.78,0.91,1.15c0.17-3.64,0.34-7.28,0.51-10.92c0.18-0.1,0.35-0.2,0.53-0.3
		c0.6,0.68,1.4,1.27,1.75,2.05c1.06,2.35,1.92,4.8,2.94,7.17c0.26,0.61,0.91,1.58,1.25,1.53c1.15-0.18,2.73-0.1,2.93-1.81
		c0.24-2.07,0.51-4.15,0.45-6.22c-0.09-2.91-0.55-5.8-0.7-8.71c-0.07-1.44,0.19-2.9,0.64-4.42c6.42,5.56,8.62,12.61,7.69,20.84
		c2.05,0.84,2.46,0.73,2.69-1.37c0.32-2.89,0.4-5.81,0.61-8.71c0.08-1.14,0.21-2.28,0.34-3.72c0.49,0.42,0.81,0.6,0.99,0.87
		c3.16,4.75,4.73,9.89,3.83,15.63c-0.06,0.38-0.17,0.79-0.07,1.14c0.54,2.06-0.1,3.91-0.95,5.73c-1.63,3.49-3.28,6.96-4.88,10.46
		c-2.22,4.87-5.96,7.5-11.27,8.26c-21.45,3.09-42.9,6.24-64.33,9.45c-10.55,1.58-21.11,3.19-31.27,6.68
		c-5.96,2.05-11.48,5-16.95,8.1c-2.72,1.54-5.5,3.03-8.38,4.26c-12.21,5.23-24.61,4.18-37.02,0.86c-5.73-1.53-11.44-3.14-17.09-4.95
		c-2.53-0.81-5.24-1.76-7.22-3.42c-5.23-4.41-11.02-7.78-17.13-10.75c-4.98-2.43-9.72-5.35-14.74-7.69
		c-2.86-1.33-6.03-2.07-9.12-2.84c-5.49-1.38-6.87-5.58-3.1-9.81c0.07-0.08,0.14-0.17,0.22-0.24c6.16-4.95,5.79-11.36,3.98-18.06
		c-0.63-2.33-0.76-2.64,1.57-3.08c3.21-0.61,6.79-1.58,9.73-0.73c3.36,0.98,5.94-0.06,8.64-1.06c3.96-1.47,7.73-3.44,11.61-5.13
		c3.71-1.62,7.58-2.1,11.62-1.57c6.44,0.83,12.92,1.69,19.4,0.68c17.75-2.75,35.2-0.09,52.64,2.77c3.04,0.5,6.06,1.12,9.08,1.68
		C441.87,819.78,441.98,819.71,442.06,819.68z M402.13,873.84c3.25-0.72,4.18-2.74,2.84-5.1c-0.43-0.75-0.94-1.54-1.6-2.08
		c-2.37-1.94-4.72-3.93-7.27-5.62c-4.33-2.86-8.94-5.14-14.21-5.8c-1.27-0.16-1.7,0.25-1.74,1.43c-0.08,2.31,0.88,4.22,2.48,5.72
		c4.84,4.54,10.4,8.05,16.4,10.84C400.13,873.75,401.47,873.72,402.13,873.84z M344.6,828.25c-0.03-0.09-0.06-0.17-0.1-0.26
		c-2.4,0.92-4.89,1.68-7.18,2.82c-2.05,1.03-2.08,2.5-0.44,4.07c2.89,2.77,8.41,3.76,12.06,2.16c3.57-1.56,4.44-5.9,1.77-8.76
		c-0.76-0.81-1.52-1.3-2.74-0.82C346.91,827.88,345.73,828,344.6,828.25z"/>
	<path class="st8" d="M1429.59,602.26c-0.34-0.24-0.77-0.41-1.02-0.72c-8.17-10.2-16.32-20.41-24.48-30.62
		c-0.3-0.37-0.58-0.76-0.95-1.26c5.77-5.58,8.93-12.4,9.41-20.3c12.37-0.66,24.65-1.31,37.27-1.98c-0.08,4.01,0.05,8.18-0.28,12.32
		c-0.91,11.29-4.62,21.66-10.78,31.15c-1.22,1.88-2.57,3.67-3.86,5.5C1433.13,598.31,1431.36,600.28,1429.59,602.26z"/>
	<path class="st8" d="M1429.03,503.93c10.25,9.92,16.57,21.91,19.43,35.61c-12.13,0.65-24.25,1.31-36.2,1.95
		c-1.08-2.7-2.19-5.65-3.45-8.54c-0.51-1.16-1.38-2.16-1.99-3.28c-0.17-0.31-0.16-0.96,0.05-1.19c7.24-8.12,14.52-16.21,21.79-24.3
		C1428.71,504.12,1428.79,504.09,1429.03,503.93z"/>
	<path class="st8" d="M1398.57,564.04c-2.16-2.71-4.2-5.27-6.29-7.89c2.01-1.99,3.51-4.2,4.2-6.86c1.59-6.16,0.1-11.44-4.76-15.63
		c-1.93-1.66-4.29-2.49-6.82-2.72c-1.92-0.17-3.55,1.18-3.82,3.07c-0.27,1.92,0.94,3.67,2.95,4.03c1.73,0.3,3.23,0.9,4.28,2.38
		c2.96,4.16,1.54,9.53-3.15,11.86c-6.33,3.14-13.32-0.15-15.56-7.32c-2.1-6.72,0.85-13.56,7.35-17.05
		c8.68-4.66,19.02-2.03,24.38,6.38c5.6,8.79,5.46,17.67-0.03,26.49c-0.4,0.64-0.93,1.21-1.41,1.8
		C1399.5,563.04,1399.08,563.48,1398.57,564.04z"/>
	<path class="st8" d="M1423.34,499.18c-7.36,8.2-14.64,16.31-21.89,24.38c-2.03-1.07-4.03-2.13-6.03-3.19
		c-0.21-0.11-0.43-0.25-0.66-0.27c-1.91-0.24-2.34-1.35-2.42-3.19c-0.37-9.02-0.92-18.04-1.41-27.05c-0.02-0.39-0.03-0.79-0.04-1.3
		C1402.8,488.74,1413.53,492.28,1423.34,499.18z"/>
	<path class="st8" d="M1383.4,488.95c0.53,9.87,1.05,19.68,1.58,29.54c-1.19,0.15-2.62,0.16-3.94,0.53
		c-2.31,0.63-4.55,1.5-6.83,2.22c-0.41,0.13-1.07,0.17-1.34-0.06c-6.54-5.81-13.05-11.66-19.55-17.51c-0.11-0.1-0.19-0.24-0.35-0.46
		C1361.73,495.36,1371.81,490.45,1383.4,488.95z"/>
	<path class="st8" d="M1367.53,526.27c-3.43,3.76-5.41,8.09-5.77,12.98c-7.97,0.43-15.85,0.85-23.89,1.28
		c-0.81-11.79,2.67-22.39,10.01-31.89C1354.43,514.51,1360.92,520.33,1367.53,526.27z"/>
	<path class="st8" d="M1371.57,558.33c-3.25,6.14-6.44,12.18-9.71,18.37c-12.31-5.86-19.25-15.88-22.84-28.51
		c7.89-0.43,15.69-0.86,23.67-1.3C1364.19,551.57,1366.85,555.69,1371.57,558.33z"/>
	<path class="st8" d="M1368.79,579.1c1.68-3.2,3.28-6.24,4.89-9.28c1.48-2.8,2.99-5.58,4.44-8.39c0.3-0.57,0.6-0.75,1.27-0.79
		c1.95-0.11,3.89-0.39,5.84-0.56c0.38-0.03,0.94,0.01,1.13,0.25c3.67,4.55,7.3,9.13,11.05,13.86
		C1388.53,579.68,1379.09,581.23,1368.79,579.1z"/>
	<path class="st8" d="M404.53,157.54c-0.32,0.27-0.6,0.63-0.96,0.79c-11.98,5.23-23.96,10.43-35.95,15.64
		c-0.44,0.19-0.89,0.36-1.46,0.59c-3.88-7.03-9.64-11.86-17.14-14.38c2.59-12.11,5.17-24.14,7.81-36.49
		c3.85,1.12,7.91,2.09,11.82,3.49c10.66,3.83,19.7,10.11,27.26,18.53c1.49,1.67,2.87,3.44,4.3,5.16
		C401.65,153.09,403.09,155.32,404.53,157.54z"/>
	<path class="st8" d="M309.47,132.42c12.25-7.31,25.48-10.28,39.44-9.46c-2.54,11.88-5.07,23.75-7.56,35.46
		c-2.89,0.34-6.02,0.64-9.14,1.1c-1.25,0.19-2.44,0.77-3.69,1.06c-0.34,0.08-0.97-0.09-1.14-0.36
		c-5.95-9.11-11.86-18.24-17.77-27.38C309.56,132.78,309.55,132.69,309.47,132.42z"/>
	<path class="st8" d="M359.55,177.51c-3.18,1.38-6.19,2.68-9.26,4.02c-1.39-2.46-3.13-4.49-5.53-5.84
		c-5.53-3.14-11.02-3.08-16.33,0.51c-2.11,1.43-3.53,3.49-4.4,5.88c-0.67,1.81,0.21,3.74,1.97,4.49c1.78,0.76,3.79,0.05,4.66-1.8
		c0.75-1.59,1.71-2.88,3.42-3.51c4.79-1.78,9.6,1,10.63,6.14c1.38,6.93-3.62,12.82-11.12,13.11c-7.03,0.27-12.87-4.36-14.54-11.55
		c-2.24-9.6,3-18.89,12.52-21.87c9.95-3.11,18.48-0.65,25.57,6.95c0.52,0.55,0.93,1.21,1.37,1.83
		C358.82,176.36,359.13,176.87,359.55,177.51z"/>
	<path class="st8" d="M303.39,136.68c5.99,9.24,11.93,18.39,17.82,27.49c-1.57,1.68-3.11,3.33-4.65,4.99
		c-0.16,0.18-0.35,0.36-0.44,0.57c-0.73,1.79-1.91,1.91-3.71,1.5c-8.81-1.99-17.65-3.81-26.48-5.7c-0.39-0.08-0.77-0.18-1.27-0.3
		C287.96,153.78,294.17,144.34,303.39,136.68z"/>
	<path class="st8" d="M283.1,172.56c9.67,2.07,19.27,4.12,28.93,6.18c-0.17,1.19-0.53,2.57-0.52,3.95c0.01,2.39,0.27,4.78,0.36,7.18
		c0.02,0.43-0.11,1.08-0.41,1.27c-7.32,4.8-14.66,9.55-22.01,14.31c-0.13,0.08-0.29,0.12-0.53,0.22
		C283.62,195.15,281.52,184.14,283.1,172.56z"/>
	<path class="st8" d="M314.99,197.62c2.73,4.29,6.39,7.34,11.02,8.95c-1.67,7.81-3.31,15.53-4.99,23.39
		c-11.59-2.29-20.91-8.42-28.17-17.99C300.2,207.2,307.53,202.45,314.99,197.62z"/>
	<path class="st8" d="M346.99,202.09c5.08,4.74,10.08,9.4,15.2,14.17c-8.87,10.36-20.35,14.44-33.48,14.61
		c1.64-7.73,3.26-15.37,4.92-23.19C338.54,207.44,343.21,205.95,346.99,202.09z"/>
	<path class="st8" d="M366.31,210.19c-2.65-2.46-5.17-4.8-7.68-7.14c-2.31-2.16-4.61-4.34-6.94-6.48c-0.48-0.44-0.57-0.77-0.43-1.43
		c0.4-1.91,0.63-3.86,0.98-5.78c0.07-0.37,0.26-0.9,0.54-1.03c5.35-2.36,10.72-4.66,16.27-7.05
		C372.02,191.29,371.05,200.8,366.31,210.19z"/>
	<path class="st7" d="M1444.6,819.66c-1.41,0.28-2.81,0.55-4.22,0.83c-0.56-0.06-1.12-0.15-1.69-0.19
		c-8.19-0.54-14.44-7.32-13.99-15.49c0.13-2.43,1.08-4.82,1.49-6.57c-17.15-11.82-34.3-23.64-51.4-35.43
		c-0.57,0.55-0.87,0.85-1.18,1.15c-7.76,7.52-19.63,5.45-24.45-4.26c-0.15-0.3-0.4-0.56-0.61-0.83c-0.3-1.55-0.61-3.09-0.91-4.64
		c0.07-0.48,0.18-0.96,0.22-1.45c0.56-5.99,3.54-10.28,8.98-12.84c0.82-0.39,1.7-0.66,2.51-0.97c-0.1-6.86,1.64-11.04,6.01-14.24
		c1.25-0.92,2.68-1.58,4.03-2.37c1.41-0.28,2.81-0.55,4.22-0.83c0.56,0.06,1.12,0.15,1.68,0.19c8.19,0.55,14.42,7.3,13.98,15.5
		c-0.13,2.43-1.07,4.82-1.48,6.56c17.16,11.83,34.3,23.65,51.4,35.43c0.47-0.44,0.68-0.64,0.89-0.83c8.06-7.9,19.79-5.93,24.83,4.16
		c0.12,0.24,0.35,0.42,0.53,0.63c0.3,1.55,0.61,3.09,0.91,4.64c-0.07,0.48-0.17,0.96-0.22,1.44c-0.57,5.98-3.54,10.29-8.98,12.85
		c-0.82,0.39-1.7,0.66-2.59,1c0.45,4.49-0.39,8.63-3.49,11.83C1449.24,816.8,1446.78,818.09,1444.6,819.66z"/>
	<path class="st7" d="M49,607.5c0-1.43,0-2.86,0-4.3c0.17-0.54,0.36-1.07,0.51-1.62c2.11-7.93,9.97-12.75,17.9-10.73
		c2.36,0.6,4.52,1.99,6.16,2.73c14.91-14.55,29.82-29.09,44.69-43.6c-0.43-0.66-0.66-1.02-0.9-1.38c-5.88-9.07-1.56-20.31,8.9-23.17
		c0.33-0.09,0.62-0.29,0.94-0.44c1.58,0,3.15,0,4.73,0c0.46,0.17,0.91,0.36,1.38,0.5c5.77,1.7,9.4,5.46,10.87,11.29
		c0.22,0.88,0.32,1.8,0.47,2.65c6.75,1.23,10.51,3.74,12.81,8.65c0.66,1.4,1.04,2.94,1.54,4.41c0,1.43,0,2.86,0,4.3
		c-0.17,0.54-0.37,1.07-0.51,1.62c-2.12,7.93-9.95,12.74-17.9,10.73c-2.36-0.6-4.52-1.98-6.15-2.72
		c-14.92,14.55-29.82,29.09-44.69,43.59c0.34,0.55,0.49,0.79,0.65,1.03c6.2,9.44,2,20.56-8.88,23.56c-0.26,0.07-0.48,0.26-0.72,0.4
		c-1.58,0-3.15,0-4.73,0c-0.46-0.16-0.91-0.35-1.37-0.49c-5.75-1.72-9.41-5.46-10.87-11.29c-0.22-0.88-0.32-1.8-0.48-2.74
		c-4.49-0.42-8.39-2.05-10.93-5.71C50.9,612.6,50.11,609.94,49,607.5z"/>
</g>
<g id="Layer_2">
	<g id="XMLID_2_">
		<g>
			<path class="st9" d="M1800.65,578.38c9.38,13.58,10.73,30.31,8.14,46.26c-4.73,29.04-17.94,58.16-39.45,78.59
				c-9.93,9.43-21.82,16.64-35.2,19.86c-16.08,3.87-32.61,0.52-48.63-1.99c-18.13-2.83-36.16-4.52-53.83,1.63
				c-7.23,2.52-14.4,5.84-22.17,3.87c-8.22-2.09-15.66-6.28-23.59-9.18c-15.23-5.57-31.37-3.79-46.86-0.32
				c-10.85,2.42-21.77,6.05-32.89,7.37c-0.09-0.2-0.18-0.4-0.28-0.61c-7.45-14.67-15.82-30.52-15.45-47.43
				c0.14-6.01,1.65-11.6,4.1-17.04c2.83-6.28,4.77-10.98,11.01-14.68c6.79-4.04,2.24-16.54-5.6-13.28
				c-6.22,2.58-11.99,6.37-16.79,11.15c17.73-22.48,50.05-23.01,76.49-29.27c17.76-4.21,33.2-12.62,48.78-21.86
				c15.59-9.25,31.76-17.37,48.78-23.68c17.26-6.4,35.14-11.26,53.29-14.33c18.34-3.09,37.72-3.89,55.71,1.49
				C1779.49,558.91,1792.66,566.8,1800.65,578.38z"/>
			<path class="st9" d="M1827.46,590.21c4.7,19.54,1.57,40.27-4.12,59.25c-9.49,31.65-28.16,62.4-56.26,80.71
				c-13.87,9.04-30.13,14.15-46.69,14.5c-19.96,0.43-39.28-5.79-59.15-6.44c-9.44-0.31-17.84,1.32-26.7,4.5
				c-9.51,3.41-18.66,5.35-28.73,3.28c-9.13-1.87-17.19-6.82-25.89-9.91c-7.74-2.75-15.47-3.22-23.61-2.34
				c-16.29,1.76-31.86,7.71-48.17,9.64c-16.9,2-34.58-1.61-46.77-14.23c-11.33-11.72-17.02-28.85-16.13-45.03
				c0.85-15.46,6.99-29.67,15.23-42.54c2.77-5.46,6.25-10.66,10.49-15.43c25.41-28.58,65.62-24.15,98.58-36.51
				c18.59-6.96,34.87-19.62,52.68-28.32c18.32-8.94,37.5-16.2,57.2-21.42c37.93-10.04,83.13-15.74,117.43,7.8
				C1811.69,557.9,1823.2,572.51,1827.46,590.21z M1808.79,624.64c2.59-15.95,1.24-32.68-8.14-46.26
				c-7.99-11.58-21.16-19.47-34.44-23.45c-17.99-5.38-37.37-4.58-55.71-1.49c-18.15,3.07-36.03,7.93-53.29,14.33
				c-17.02,6.31-33.19,14.43-48.78,23.68c-15.58,9.24-31.02,17.65-48.78,21.86c-26.44,6.26-58.76,6.79-76.49,29.27
				c4.8-4.78,10.57-8.57,16.79-11.15c7.84-3.26,12.39,9.24,5.6,13.28c-6.24,3.7-8.18,8.4-11.01,14.68
				c-2.45,5.44-3.96,11.03-4.1,17.04c-0.37,16.91,8,32.76,15.45,47.43c0.1,0.21,0.19,0.41,0.28,0.61
				c11.12-1.32,22.04-4.95,32.89-7.37c15.49-3.47,31.63-5.25,46.86,0.32c7.93,2.9,15.37,7.09,23.59,9.18
				c7.77,1.97,14.94-1.35,22.17-3.87c17.67-6.15,35.7-4.46,53.83-1.63c16.02,2.51,32.55,5.86,48.63,1.99
				c13.38-3.22,25.27-10.43,35.2-19.86C1790.85,682.8,1804.06,653.68,1808.79,624.64z"/>
		</g>
		<g>
		</g>
	</g>
	<path class="st9" d="M1539.97,812.02c-2.78-0.75-5.68-0.73-8.46-0.11c-1.07-1.62-2.96-2.68-5.47-3.71
		c-3.45-1.41-7.07,1.03-8.98,3.65c-2.84,3.91-2.5,9.21-0.04,13.14c-0.85,3.27-0.58,6.88,1.31,10.5c6.41,12.27,19.95,8.66,28.48,1.2
		c4.39-0.12,8.01-3.21,7.84-8.92C1554.44,820.19,1546.87,813.89,1539.97,812.02z"/>
	<path class="st9" d="M1606.2,825.66c-4.48,1.16-9.64,1.29-13.19,4.19c-4.1-0.14-4.44,5.06-1.92,7.42c2.35,5.13,8.17,6.1,13.65,5.65
		c6.07-0.51,14.29-3.23,14.29-10.63C1619.03,825.3,1611.45,824.31,1606.2,825.66z"/>
	<path class="st9" d="M1693.75,881.27c-0.73-0.88-1.51-1.67-2.33-2.4c-1.12-1.95-3.01-3.41-5.72-3.81
		c-0.15-0.02-0.29-0.04-0.44-0.06c-8.41-3.57-18.93-2.45-27.75,0.81c-2.29,0.2-4.2,1.22-5.97,2.54c-3.62-0.18-5.63,2.91-5.27,5.85
		c-2.17,6.89,3.5,16.2,11.74,12.98c1.35-0.53,2.72-1.01,4.11-1.44c1.09,0.09,2.17,0.15,3.2,0.22c6.82,0.44,13.75-0.42,20.37-2.03
		c0.46-0.11,0.89-0.27,1.3-0.44c0.55,0.04,1.1,0.07,1.66,0.06C1695.31,893.48,1697.59,885.92,1693.75,881.27z"/>
	<path class="st9" d="M1262.42,701.99c-2.85-10.88-13.37-17.7-24-19.34c-13.4-2.07-25.65,4.9-38.88,4.37
		c-13.9-0.56-26.65-6.69-40.79-4.15c-3.17,0.57-6.31,1.57-9.27,2.94c-0.66,0-1.33,0.07-2.01,0.24c-3.76,0.91-6.96,2.63-9.56,4.92
		c-0.3,0.21-0.6,0.42-0.89,0.64c-0.3,0.05-0.6,0.13-0.89,0.24c-7.81-0.5-15.33,6.97-16.05,14.91c-1.03,11.34,9.12,20.12,19.36,22.48
		c12.64,2.92,25.79-1.28,38.64,0.5c11.41,1.57,22.51,4.83,33.94,6.33c11.76,1.54,23.54,0.92,34.3-4.52
		C1256.93,726.17,1265.67,714.39,1262.42,701.99z"/>
	<path class="st9" d="M1451.19,244c-0.53-1.01-1.32-1.91-2.27-2.6c-7.72-7.99-19.54-12.76-30.23-15.21
		c-47.8-10.93-95.55,4.69-140.17,20.68c-2.05,0.73-3.29,2.15-3.85,3.77c-6.15,3.21-9.52,9.79-8.89,16.96
		c-2.01,5.21-2.01,11,0.74,16.33c4.12,7.98,12.67,11.82,21.13,13.42c21.09,4.02,43,5.5,64.44,5.62c20.82,0.12,42.58-0.51,62.93-5.35
		c17.33-4.12,41.77-14.05,42.3-35.07C1457.51,255.15,1455.13,249.02,1451.19,244z M1382.47,254.01c-0.14,0.11-0.29,0.22-0.43,0.34
		c-0.82,0.46-1.63,0.97-2.41,1.51c-0.62-0.87-1.34-1.65-2.16-2.28C1379.14,253.68,1380.8,253.83,1382.47,254.01z"/>
	<path class="st9" d="M1470.3,310.24c-3.76-0.16-7.8-0.74-11.54-0.35c-7.09,0.74-9.86,8.95-4.2,13.38c0.59,2.66,2.21,5.09,4.74,6.72
		c4.68,3.02,11.38,2.15,14.4-2.81c0.43-0.71,0.76-1.44,1.01-2.19c0.91-0.86,1.71-1.84,2.35-2.97
		C1480.11,316.71,1476.18,310.49,1470.3,310.24z"/>
	<path class="st9" d="M1533.03,301.04c0.24-1.95-0.08-4-1.15-6.05c-7.85-15.04-32.25-11.29-33.99,5.93
		c-0.72,7.16,2.94,14.56,9.19,18.2c7.1,4.13,16.22,1.76,21.39-4.3C1531.8,310.91,1533.5,305.88,1533.03,301.04z"/>
	<path class="st9" d="M1081.98,93.18c-8.34-4.7-18.24-5.76-27.61-6.62c-9.21-0.84-21.55-0.91-31.98,2.27
		c-5.54,0.71-10.92,2.21-15.71,5.18c-8.44,5.23-13.98,14.92-8.98,24.56c5.27,10.17,18.61,11.38,28.65,12.63
		c12.73,1.58,25.47,1.24,38.15-0.61c9.69-1.41,21.89-3.36,26.89-13.03C1096.39,107.91,1090.64,98.07,1081.98,93.18z"/>
	<path class="st9" d="M507.51,516.88c-1.83-7.75-8.24-13.83-15.05-17.49c-13.68-7.35-31-8.24-46.05-5.87
		c-3.11,0.49-6.19,1.18-9.22,2.02c-8.23,1.62-16.96,4.6-22.68,10.08c-5.14,3.58-9.42,7.99-13.28,13.22
		c-1.33,1.81-0.67,3.8,0.74,5.05c-0.4,3.35,1.47,7.2,4.27,8.69c0.96,0.51,1.93,0.99,2.91,1.45c6.43,10,19.98,12.41,30.97,12.36
		c1.9-0.01,3.81-0.1,5.71-0.26c1.74,0.05,3.47,0.04,5.19-0.07c1.86-0.11,3.73-0.32,5.6-0.6c13.77,1.5,29.55,0.24,41.15-7.2
		C504.98,533.63,509.56,525.54,507.51,516.88z"/>
	<path class="st9" d="M332.96,404.9c-1.23-0.41-2.49-0.68-3.77-0.84c-3.22-0.97-6.71-1.1-10.01-0.32
		c-5.15,1.22-9.26,4.34-12.63,8.19c-1.05,0.75-2.08,1.56-3.06,2.44c-2.03,1.82-2.67,5.07-1.86,7.75c0.14,1.11,0.48,2.18,1.04,3.09
		c2.8,4.57,7.11,7.18,11.8,8.14c3.73,2.11,7.78,3.5,12.22,3.39c7.83-0.2,15.93-5.13,17.84-13.06
		C346.54,415.33,340.69,407.5,332.96,404.9z"/>
	<g id="XMLID_1_">
		<g>
			<path class="st9" d="M314.01,627.44c21.31,7.02,45.33,24.07,39.15,49.85c-2.91,12.14-13.42,18.74-24.38,22.77
				c-12.05,4.44-24.67,7.65-37.19,10.43c-51.28,11.36-104.74,11.8-156.19,1.25c-19-3.89-46.9-9.88-49.02-33.66
				c-2.13-23.97,26.07-39.82,45.57-45.34c11.94-3.38,24.22-4.52,36.55-4.64c19.37-4.46,39.38-6.51,59.11-7.37
				C255.85,619.49,286.83,618.48,314.01,627.44z M326.77,681.78c8.1-3.59,11.96-10.45,8.33-19.06
				c-3.54-8.39-12.78-13.55-20.76-16.88c-10.02-4.18-20.98-6.31-31.74-7.4c-4.26-0.43-8.52-0.77-12.79-1.05
				c-20.56,9.77-43.57,11.06-66.18,9.87c-22.03-1.16-44.59-3.26-66.15,2.68c-8.56,2.35-16.89,6.02-23.76,11.73
				c-5.05,4.2-12.53,11.84-8.1,18.85c3.82,6.05,12.46,8.56,18.95,10.29c11.06,2.95,22.39,5.1,33.7,6.82
				c45.57,6.95,92.79,4.58,137.5-6.51C306.06,688.57,317.05,686.09,326.77,681.78z"/>
			<path class="st9" d="M335.1,662.72c3.63,8.61-0.23,15.47-8.33,19.06c-9.72,4.31-20.71,6.79-31,9.34
				c-44.71,11.09-91.93,13.46-137.5,6.51c-11.31-1.72-22.64-3.87-33.7-6.82c-6.49-1.73-15.13-4.24-18.95-10.29
				c-4.43-7.01,3.05-14.65,8.1-18.85c6.87-5.71,15.2-9.38,23.76-11.73c21.56-5.94,44.12-3.84,66.15-2.68
				c22.61,1.19,45.62-0.1,66.18-9.87c4.27,0.28,8.53,0.62,12.79,1.05c10.76,1.09,21.72,3.22,31.74,7.4
				C322.32,649.17,331.56,654.33,335.1,662.72z"/>
		</g>
		<g>
		</g>
	</g>
	<path class="st9" d="M216.19,786.86c-6.22-6.2-16.54-8.49-25.04-7.82c-2.35,0.19-5.99,0.74-9.46,1.86
		c-5.95,1.01-11.51,3.71-15.05,8.89c-3.8,5.57-4.92,13.53-1.42,19.52c4.56,7.83,13.98,8.09,22,7.2c9.01-1,19.41-3.07,26.7-8.81
		C220.59,802.45,222.62,793.27,216.19,786.86z M192.64,797.5c-0.26-0.7-0.62-1.35-1.06-1.95c1.14,0.16,2.26,0.37,3.38,0.59
		C194.21,796.61,193.44,797.07,192.64,797.5z"/>
	<path class="st9" d="M149.41,99.32c-6.29-5.26-13.6-9.14-21.81-10.27c-4.09-0.56-8.15-0.68-12.24-0.04
		c-1.79,0.28-4.1,0.51-5.67,1.49c-0.42,0.25-0.8,0.54-1.13,0.88c-4.56,1.4-8.87,3.82-12.57,7.29c-2.26,2.11-2.6,5.84-1.09,8.45
		c4.78,8.27,13.61,12.54,22.97,13c10.92,0.53,21.04-5,30.19-10.28C151.54,107.84,152.76,102.12,149.41,99.32z"/>
	<path class="st9" d="M226.32,126.86c-6.99-4.91-15.5-7.58-24-8.05c-4.04-0.23-8.27,0.03-12.22,0.96c-1.7,0.4-3.41,0.99-5.01,1.72
		c-4.75,1.89-9.09,4.87-12.56,8.98c-2.21,2.61-3.04,7.17,0,9.68c16.01,13.22,40.58,12.59,55.16-2.67
		C230.89,134.13,229.91,129.38,226.32,126.86z"/>
	<path class="st9" d="M387.88,80.91c-0.34-1.56-1.29-2.97-3-3.83c-3.35-1.68-6.75-2.44-10.46-1.53c-1.55,0.38-3.3,1.01-4.45,2.16
		c0,0-0.01,0.01-0.01,0.01c-2.76,0.52-5.46,1.47-8,2.82c-1.31,0.32-2.63,0.65-3.95,0.97c-8.58,2.09-4.95,15.19,3.64,13.22
		c0.82-0.19,1.64-0.35,2.46-0.51c3.36,0.48,6.68,0.7,9.99,0.62c2.33,0.53,4.81,0.26,7.18-0.65c1.58-0.25,3.17-0.55,4.76-0.94
		C392.61,91.64,392.22,84.1,387.88,80.91z"/>
	<path class="st9" d="M779.57,306.44c-1.78-4.94-5.22-8.9-10.48-10.23c-1.43-0.36-3.26-0.48-5.16-0.33
		c-10.23-3.44-22.82,2.88-24.03,15.28c-0.22,2.26,1.41,4.54,3.24,5.65c10.76,6.51,26.01,5.41,34.76-4.06
		C779.4,311.14,780.36,308.63,779.57,306.44z"/>
	<path class="st9" d="M843.98,326.83c-3.92-0.27-7.8,0.78-11.54,1.81c-3.12,0.85-7.17,1.23-10.14,2.79
		c-0.25-0.07-0.5-0.13-0.75-0.21c-3.22-0.91-5.69,3.36-3.86,5.57c-1.46,1.24-2.83,2.62-4.07,4.17c-2.69,3.35-2.55,7.89,1.33,10.34
		c8.42,5.3,18.51,10.58,28.77,7.67c7.36-2.09,13.27-9.4,13.75-17.03C857.98,334.01,851.83,327.37,843.98,326.83z"/>
	<path class="st9" d="M897.13,317.06c-1.96-3.51-6.25-5.55-10.16-4.42c-0.47,0.14-0.95,0.35-1.41,0.62c-2.59,0.88-4.55,3.18-5.3,5.9
		c-0.21,0.76-0.21,1.47-0.08,2.14c-0.05,0.34-0.07,0.68-0.07,1.01c0.03,2.8,1.92,5.19,4.23,6.6c3.28,2,7.66,1.98,10.73-0.39
		C898.64,325.75,899.29,320.94,897.13,317.06z"/>
	<path class="st9" d="M809.08,715.35c-4.46-8.2-13.13-14.11-21.43-17.94c-10.41-4.8-21.9-7.05-33.26-6.5
		c-8.96-1.48-18.06-0.92-27,3.18c-16.78,7.68-23.14,26.49-17.06,43.43c6.56,18.29,23.42,28.65,42.49,29.26
		c19.41,0.62,42.62-7.89,54.09-24.18C812.58,734.55,813.87,724.17,809.08,715.35z M749.92,752.23c0.71,0.04,1.43,0.06,2.15,0.06
		c1.82,0.11,3.65,0.14,5.47,0.09C754.97,752.53,752.42,752.49,749.92,752.23z"/>
</g>
</svg>
