<svg xmlns="http://www.w3.org/2000/svg" viewBox="0 0 815.317 522.988">
  <defs>
    <style>
      .a {
        fill: #fff;
      }
    </style>
  </defs>
  <path class="a" d="M397.433,436.55c0,21.5.2,43.006-.165,64.5a30.431,30.431,0,0,1-3.585,14.154,15.666,15.666,0,0,1-22.256,5.159c-17.935-11.645-35.594-23.715-53.361-35.619q-57.235-38.352-114.453-76.729c-40.413-27.23-80.687-54.668-121.082-81.927Q46.46,301.749,10.2,277.69c-13.312-8.856-13.669-23.421-.62-32.213q54.03-36.4,108.078-72.78,73.05-49.212,146.1-98.424,48.935-32.88,98.029-65.518c3.032-2.027,5.923-4.279,9.043-6.155a17.138,17.138,0,0,1,25.963,11.394,49.038,49.038,0,0,1,.919,9.4q.091,59,.046,118.006c0,7.282.5,7.358,7.749,8.715,23.825,4.464,47.755,8.54,71.338,14.069,21.129,4.954,42.081,10.944,62.687,17.758,17.921,5.927,35.4,13.292,52.805,20.655a461.5,461.5,0,0,1,76.649,41.08c26.722,17.837,51.252,38.281,72.621,62.461a291.316,291.316,0,0,1,51.9,82.581c8.216,20,14.57,40.691,17.215,62.213,2.146,17.472,3.406,35.069,4.549,52.643.606,9.314-4.809,16.566-12.6,18.623-8.34,2.2-16.1-1.429-20.592-10.03-21.854-41.838-55.447-71.813-95.8-94.938a301.573,301.573,0,0,0-75.751-31.13c-18.47-4.692-37.217-8.432-55.988-11.772-30.879-5.5-62.143-7.241-93.451-8.183-19.143-.576-38.291-1.026-57.425-1.819-4.89-.2-6.34,1.469-6.3,6.219C397.539,392.547,397.437,414.549,397.433,436.55Z"/>
</svg>
