<svg xmlns="http://www.w3.org/2000/svg" viewBox="0 0 503.702 512">
  <defs>
    <style>
      .a {
        fill: #fff;
      }
    </style>
  </defs>
  <path class="a" d="M355.011,0c-1.714,4.644-4.319,8.072-9.407,9.891a32.391,32.391,0,0,0-10.392,6.633q-18.335,16.621-36.2,33.754a12.277,12.277,0,0,1-9.263,3.658q-114.514-.151-229.029-.076H54.072V457.818H404.24V451.5q0-92.487-.073-184.973a10.049,10.049,0,0,1,3.765-8.536c16.471-14.289,32.747-28.8,50.107-44.144V512H0V0Z"/>
  <path class="a" d="M363.238,60.1l85.592,85.542c-.89.954-2.064,2.289-3.319,3.544q-65.058,65.055-130.063,130.162c-8.984,9.043-19.37,12.575-31.933,12.96-11.253.345-22.452,2.64-33.66,4.18-14.339,1.971-28.663,4.048-43.71,6.181,1.1-8.075,2.095-15.74,3.186-23.391,2.4-16.81,4.921-33.6,7.216-50.426.739-5.41.644-10.937,1.433-16.337C218.931,206,222.4,200.57,226.963,196q67.484-67.579,135.084-135.042A6.762,6.762,0,0,1,363.238,60.1Z"/>
  <path class="a" d="M386.751,37.655c7.363-7.73,14.567-16.608,23.093-23.954C424.821.8,448.5,2.389,464.262,16.909q14.329,13.194,27.567,27.56c15.388,16.709,16.695,43.278-1.266,59.68-6.616,6.042-12.691,12.674-18.676,18.7Q428.75,79.68,386.751,37.655Z"/>
</svg>
