<svg xmlns="http://www.w3.org/2000/svg" viewBox="0 0 435.716 425.333">
  <defs>
    <style>
      .a {
        fill: #a05221;
      }
    </style>
  </defs>
  <path class="a" d="M34.284,477.42c1.466-22.709.433-45.046,4.808-66.269,8.357-40.545,43.952-68.821,87.868-70.794,39.379-1.769,78.866-1.463,118.305-1.481,43.282-.019,86.625-.68,129.831,1.324,57.7,2.678,94.42,42.541,94.859,100.027.093,12.173.013,24.346.013,37.193Z" transform="translate(-34.284 -52.087)"/>
  <g>
    <path class="a" d="M253.375,201.465c40.8,0,67.681-9.019,85.409-20.906a58.5,58.5,0,0,0,9.741-1.38c-12.414-41.45-49.594-70.154-95.456-69.974-42.9.168-80.246,28.39-94.117,66.686.749.1,1.5.19,2.253.259C179.087,190.143,207.665,201.465,253.375,201.465Z" transform="translate(-34.284 -52.087)"/>
    <path class="a" d="M343.106,193.243c-22.575,14.086-52.738,21.222-89.731,21.222-40.92,0-73.6-8.689-97.207-25.834-.278-.041-.557-.095-.835-.14a95.167,95.167,0,0,0-2.131,20.774c.452,56.139,44.873,99.928,100.985,99.548,54.951-.372,99.092-44.811,98.778-99.446a109.511,109.511,0,0,0-1.5-17.548A71.822,71.822,0,0,1,343.106,193.243Z" transform="translate(-34.284 -52.087)"/>
  </g>
  <path class="a" d="M388.27,110.07c-14.357-10.6-38.728.052-64.34,13.77h-1.683C319.47,99.965,312.231,58.691,295.1,53.9c-18.616-5.2-22.465,2.044-31.471,5.742a53.97,53.97,0,0,1-22.264-.362c-8.42-3.784-12.6-10.415-30.622-5.38-16.841,4.7-24.122,44.656-27,68.692-27.6-15.08-54.5-28.141-69.895-16.779-28.265,20.864,7.626,66.649,47.363,70.333,17.882,13.993,46.46,25.315,92.17,25.315,40.8,0,67.681-9.019,85.409-20.906C379.347,178.354,417.037,131.305,388.27,110.07Z" transform="translate(-34.284 -52.087)"/>
</svg>
