<svg xmlns="http://www.w3.org/2000/svg" viewBox="0 0 1050.221 750.001">
  <defs>
    <style>
      .a {
        fill: #fff;
      }
    </style>
  </defs>
  <path class="a" d="M525.143,150q-224.214,0-448.428-.012c-37.326-.007-67.366-24.11-75.1-60.082C-8.018,45.138,26.875,1,72.664.038c1.5-.032,3-.036,4.5-.036Q525.092,0,973.019.007c35.311,0,64.6,21.308,74.044,53.773,14.085,48.4-21.736,96.131-72.492,96.182Q798.6,150.14,622.628,150Z"/>
  <path class="a" d="M524.548,450q-223.964,0-447.928-.013c-37.27-.008-67.348-24.207-75.032-60.172-9.569-44.786,25.365-88.855,71.171-89.779,1.5-.03,3-.035,4.5-.035q447.929,0,895.857,0c34.178,0,62.613,19.9,73.045,51.019,16.477,49.144-19.732,98.924-72.183,98.949Q749.262,450.083,524.548,450Z"/>
  <path class="a" d="M525.664,600q224.214,0,448.429.018c36.875.01,66.879,24.322,74.536,60.132,9.578,44.79-25.3,88.833-71.131,89.81-1.666.036-3.332.038-5,.038q-447.429,0-894.857,0C43.263,750,14.886,730.446,4.2,699.464c-16.869-48.92,19.3-99.392,71.533-99.429q212.715-.148,425.432-.034Z"/>
</svg>
