<svg xmlns="http://www.w3.org/2000/svg" viewBox="0 0 416.131 371.872">
  <defs>
    <style>
      .a {
        fill: #fff;
      }
    </style>
  </defs>
  <path class="a" d="M305.053,275.779c-31.311,0-62.623.05-93.935-.028-11.683-.029-18.212-5.087-17.379-13.9.985-10.437,8.4-12.951,17.551-12.945q93.375.058,186.751.047c11.571.011,17.99,5.046,18.089,13.676.1,8.5-6.149,13.108-18.26,13.132Q351.462,275.853,305.053,275.779Z"/>
  <path class="a" d="M304.672,72.053q-46.408,0-92.817-.018c-12.066-.021-18.039-4.457-18.2-13.224-.156-8.441,6.425-13.573,18.053-13.584q93.375-.09,186.751,0c11.332.012,18.278,5.441,17.578,14.047-.856,10.532-8.191,12.875-17.43,12.832C367.3,71.964,335.983,72.054,304.672,72.053Z"/>
  <path class="a" d="M266.736,122.894c-18.614,0-37.229-.072-55.842.029-9.373.05-16.24-3.146-17.139-13.406-.728-8.313,5.627-13.406,16.615-13.435,37.6-.1,75.2.06,112.8-.108,9.413-.042,16.322,2.658,17.081,13.126.634,8.757-5.769,13.677-17.675,13.761C303.965,122.992,285.35,122.9,266.736,122.894Z"/>
  <path class="a" d="M266.779,299.775c18.988,0,37.977-.085,56.965.032,10.922.068,16.944,4.963,16.514,13.587-.5,9.981-7.267,13.165-16.013,13.186q-57.524.133-115.049.009c-9.193-.013-15.469-4.472-15.378-13.9.094-9.746,6.939-13.013,15.995-12.953C228.8,299.861,247.79,299.775,266.779,299.775Z"/>
  <path class="a" d="M168.623,287.5h-.432c0-22.368.109-44.736-.044-67.1-.081-11.952-4.424-16.59-15.888-16.623q-68.221-.2-136.443.01c-10.759.035-15.659,4.949-15.7,15.846q-.237,68.22,0,136.443c.039,10.814,4.989,15.628,15.863,15.665q68.781.237,137.561.083c10.342-.019,15.049-4.933,15.065-15Q168.666,322.157,168.623,287.5Z"/>
  <path class="a" d="M168.165,17.444C168.107,4.226,163.959.083,150.78.059Q84.246-.059,17.712.058C4.707.081.116,4.545.087,17.374q-.15,66.534,0,133.068c.026,12.968,4.593,17.572,17.356,17.639,22.736.12,45.474.034,68.211.048,22.364.014,44.729.086,67.093-.017,11.035-.05,15.812-4.792,15.791-15.379Q168.4,85.089,168.165,17.444Z"/>
</svg>
