<svg xmlns="http://www.w3.org/2000/svg" viewBox="0 0 538.31 980.821">
  <defs>
    <style>
      .a {
        fill: #d87c38;
      }
    </style>
  </defs>
  <path class="a" d="M269.67,980.821c-2.826-6.073-5.137-10.651-7.125-15.366-67.189-159.412-132.716-319.5-193.659-481.416C46.623,424.889,26.221,365.052,8.974,304.2c-19.65-69.33-6.6-133.144,34.946-190.9C88.9,50.776,151.015,14.157,226.741,3.4c97.993-13.921,182.625,14.8,250.208,88.107,34.664,37.6,54.667,82.561,60.381,133.822,3.173,28.466-1.735,55.621-9.341,82.754-16.856,60.127-38.044,118.778-60.021,177.15C413.339,630.328,354.307,773.674,295.977,917.3c-7.2,17.723-14.327,35.474-21.542,53.19C273.191,973.542,271.678,976.488,269.67,980.821ZM98.477,254.005C94.5,354.261,182.5,428.357,268.851,428.076c93.114-.3,171.719-78.36,171.83-171.816.1-83.347-69.377-174.991-179.724-171.21C168.67,88.212,95.547,170.55,98.477,254.005Z"/>
</svg>
