<svg xmlns="http://www.w3.org/2000/svg" viewBox="0 0 872.889 161.301">
  <defs>
    <style>
      .a {
        fill: #eae3d8;
      }

      .b {
        fill: #fff;
      }
    </style>
  </defs>
  <g>
    <path class="a" d="M5.742,82.212q2.583-.492,4.689-.741a32.561,32.561,0,0,1,3.732-.247,34.477,34.477,0,0,1,3.876.247q2.152.249,4.641.741v88.16a40.855,40.855,0,0,1-8.421,1.111,40.079,40.079,0,0,1-8.517-1.111Z" transform="translate(-5.742 -46.154)"/>
    <path class="a" d="M33.78,107.154q4.02-.617,8.517-1.173a68.787,68.787,0,0,1,8.422-.556,33.759,33.759,0,0,1,13.254,2.346,23.536,23.536,0,0,1,9.043,6.606,26.8,26.8,0,0,1,5.168,10.31,51.839,51.839,0,0,1,1.627,13.459,54.856,54.856,0,0,1-1.675,14.076,28.542,28.542,0,0,1-5.263,10.742,23.4,23.4,0,0,1-9.283,6.852,35.2,35.2,0,0,1-13.733,2.408,72.761,72.761,0,0,1-8.373-.432q-3.685-.435-7.7-1.173Zm16.173,47.413a5.556,5.556,0,0,1,1,.124,10.41,10.41,0,0,0,1.866.123q5.358,0,7.99-3.889t2.632-12.779q0-7.9-2.584-11.545a8.5,8.5,0,0,0-7.368-3.643,16.742,16.742,0,0,0-2.1.124,13.146,13.146,0,0,0-1.436.247Z" transform="translate(-5.742 -46.154)"/>
    <path class="a" d="M102.011,145.431q1.052,5.064,3.685,7.161a10.794,10.794,0,0,0,6.938,2.1,25.782,25.782,0,0,0,6.22-.865,31.263,31.263,0,0,0,6.794-2.593,46.979,46.979,0,0,1,2.345,7.656,46.061,46.061,0,0,1,1.1,9.26,39.955,39.955,0,0,1-17.416,4.075,26.142,26.142,0,0,1-11.819-2.469A21.479,21.479,0,0,1,91.82,162.9a30.263,30.263,0,0,1-4.594-10.432,55.368,55.368,0,0,1-1.483-13.213,54.738,54.738,0,0,1,1.531-13.211A33.641,33.641,0,0,1,91.868,115.3a22.993,22.993,0,0,1,7.655-7.223,21.047,21.047,0,0,1,10.718-2.655,18.213,18.213,0,0,1,9.044,2.222,20.615,20.615,0,0,1,6.746,6.112,29.077,29.077,0,0,1,4.259,9.385,45.635,45.635,0,0,1,1.483,11.915q0,3.333-.239,5.988t-.431,4.384Zm15.12-14.2a14.314,14.314,0,0,0-2.057-7.223,6.046,6.046,0,0,0-5.407-2.9,6.818,6.818,0,0,0-5.263,2.47q-2.2,2.471-2.584,7.655Z" transform="translate(-5.742 -46.154)"/>
    <path class="a" d="M139.62,109.994a68.55,68.55,0,0,1,8.134-2.9,42.789,42.789,0,0,1,11.962-1.42,39.135,39.135,0,0,1,8.421.926,16.986,16.986,0,0,1,7.608,3.889,21.24,21.24,0,0,1,5.55,8.52q2.154,5.556,2.154,14.693v36.919a30.671,30.671,0,0,1-4.5.8q-2.01.186-3.541.185-1.628,0-3.636-.185a30.625,30.625,0,0,1-4.5-.8v-34.7q0-6.543-1.914-9.384a6.562,6.562,0,0,0-5.838-2.84,11.182,11.182,0,0,0-2.248.247,4.009,4.009,0,0,0-1.484.494v46.179a30.659,30.659,0,0,1-4.5.8q-2.01.186-3.541.185-1.629,0-3.636-.185a30.625,30.625,0,0,1-4.5-.8Z" transform="translate(-5.742 -46.154)"/>
    <path class="a" d="M203.736,124.316H189.573a36.945,36.945,0,0,1-.622-4.63q-.144-2.159-.144-4.136t.144-4.075a37.181,37.181,0,0,1,.622-4.568h44.5a37.571,37.571,0,0,1,.622,4.568q.144,2.1.144,4.075t-.144,4.136a37.32,37.32,0,0,1-.622,4.63H219.908v46.3q-2.488.49-4.5.74a26.893,26.893,0,0,1-7.273,0q-2.01-.249-4.4-.74Z" transform="translate(-5.742 -46.154)"/>
    <path class="a" d="M241.63,106.907a25.813,25.813,0,0,1,4.163-.864,33.242,33.242,0,0,1,3.971-.248,33.756,33.756,0,0,1,3.924.248,23.386,23.386,0,0,1,4.115.864v63.712q-2.49.49-4.5.74a26.893,26.893,0,0,1-7.273,0q-2.01-.249-4.4-.74Z" transform="translate(-5.742 -46.154)"/>
    <path class="a" d="M268.52,106.907h36.556a37.97,37.97,0,0,1,.622,4.568q.143,2.1.143,4.075t-.143,4.136a37.7,37.7,0,0,1-.622,4.63H284.692v9.878h16.46a37.586,37.586,0,0,1,.622,4.569q.144,2.1.143,4.075t-.143,4.136a37.385,37.385,0,0,1-.622,4.631h-16.46V170.5a19.926,19.926,0,0,1-4.114.8q-2.107.184-3.924.185-1.915,0-3.971-.185a21.655,21.655,0,0,1-4.163-.8Zm44.116,0a25.8,25.8,0,0,1,4.162-.864,33.258,33.258,0,0,1,3.972-.248,33.739,33.739,0,0,1,3.923.248,23.378,23.378,0,0,1,4.116.864v63.712q-2.49.49-4.5.74a26.893,26.893,0,0,1-7.273,0q-2.01-.249-4.4-.74Z" transform="translate(-5.742 -46.154)"/>
    <path class="a" d="M364.5,129.379a7.966,7.966,0,0,0-.957-3.7,6.281,6.281,0,0,0-2.2-2.285,9.013,9.013,0,0,0-2.966-1.111,18.1,18.1,0,0,0-3.35-.309,25.293,25.293,0,0,0-5.359.679,32,32,0,0,0-6.315,2.161q-.863-2.1-1.484-3.828a22.561,22.561,0,0,1-.957-3.519,33.45,33.45,0,0,1-.478-3.7q-.144-1.913-.144-4.383a50.273,50.273,0,0,1,9.139-2.963,38.939,38.939,0,0,1,8.182-.988,24.941,24.941,0,0,1,9,1.543,17.214,17.214,0,0,1,6.843,4.754,22.031,22.031,0,0,1,4.354,8.211,40.985,40.985,0,0,1,1.531,11.915v36.177q-3.637,1.362-8.8,2.717a42.774,42.774,0,0,1-10.909,1.359,33.655,33.655,0,0,1-9.139-1.173,18.1,18.1,0,0,1-7.129-3.767,17.3,17.3,0,0,1-4.642-6.852,28.6,28.6,0,0,1-1.674-10.433,22,22,0,0,1,2.009-10,17.644,17.644,0,0,1,5.168-6.3,19.148,19.148,0,0,1,6.986-3.272,31.683,31.683,0,0,1,7.464-.926Zm0,13.088h-5.455a8.71,8.71,0,0,0-5.646,1.852,6.287,6.287,0,0,0-2.3,5.186,7.486,7.486,0,0,0,.861,3.89,6.023,6.023,0,0,0,2.153,2.161,8.258,8.258,0,0,0,2.776.987,16.535,16.535,0,0,0,2.727.247,17.752,17.752,0,0,0,2.488-.247,16.4,16.4,0,0,0,2.392-.494Z" transform="translate(-5.742 -46.154)"/>
    <path class="a" d="M399.335,145.061a18.179,18.179,0,0,1-8.421-6.3q-3.351-4.446-3.349-12.1A24.075,24.075,0,0,1,389.1,117.9a19.173,19.173,0,0,1,4.306-6.729,18.881,18.881,0,0,1,6.556-4.26,22.754,22.754,0,0,1,8.373-1.482,35.735,35.735,0,0,1,7.942.988,47.707,47.707,0,0,1,8.518,2.839,47.473,47.473,0,0,1-1.245,8.458,59.793,59.793,0,0,1-2.392,7.965,36.2,36.2,0,0,0-6.22-2.47,23.059,23.059,0,0,0-6.7-1.111q-4.5,0-4.5,3.21a2.411,2.411,0,0,0,1.053,2.1,10.259,10.259,0,0,0,2.393,1.235l6.22,2.1a27.122,27.122,0,0,1,5.215,2.408,14.239,14.239,0,0,1,4.02,3.642,17.069,17.069,0,0,1,2.631,5.433,27.549,27.549,0,0,1,.957,7.779,25.455,25.455,0,0,1-1.483,8.767,19.34,19.34,0,0,1-4.4,7.038,21.033,21.033,0,0,1-7.177,4.691,25.944,25.944,0,0,1-9.81,1.729,39.593,39.593,0,0,1-8.517-.865,38.949,38.949,0,0,1-8.325-2.962,61.318,61.318,0,0,1,3.541-17.04,25.435,25.435,0,0,0,6.411,2.779,25.05,25.05,0,0,0,6.7.926q1.149,0,2.393-.124a6.961,6.961,0,0,0,2.2-.556,4.37,4.37,0,0,0,1.578-1.173,2.967,2.967,0,0,0,.623-1.976,2.68,2.68,0,0,0-1.244-2.407,15.485,15.485,0,0,0-2.871-1.42Z" transform="translate(-5.742 -46.154)"/>
    <path class="a" d="M459.527,129.379a7.966,7.966,0,0,0-.957-3.7,6.281,6.281,0,0,0-2.2-2.285,9.013,9.013,0,0,0-2.966-1.111,18.1,18.1,0,0,0-3.35-.309,25.293,25.293,0,0,0-5.359.679,32.034,32.034,0,0,0-6.316,2.161q-.861-2.1-1.483-3.828a22.451,22.451,0,0,1-.957-3.519,33.688,33.688,0,0,1-.479-3.7q-.143-1.913-.143-4.383a50.248,50.248,0,0,1,9.139-2.963,38.939,38.939,0,0,1,8.182-.988,24.941,24.941,0,0,1,9,1.543,17.214,17.214,0,0,1,6.843,4.754,22.031,22.031,0,0,1,4.354,8.211,40.985,40.985,0,0,1,1.531,11.915v36.177q-3.638,1.362-8.8,2.717a42.776,42.776,0,0,1-10.91,1.359,33.652,33.652,0,0,1-9.138-1.173,18.109,18.109,0,0,1-7.13-3.767,17.3,17.3,0,0,1-4.641-6.852,28.6,28.6,0,0,1-1.674-10.433,22,22,0,0,1,2.009-10,17.644,17.644,0,0,1,5.168-6.3,19.148,19.148,0,0,1,6.986-3.272,31.683,31.683,0,0,1,7.464-.926Zm0,13.088h-5.455a8.71,8.71,0,0,0-5.646,1.852,6.287,6.287,0,0,0-2.3,5.186,7.486,7.486,0,0,0,.861,3.89,6.023,6.023,0,0,0,2.153,2.161,8.261,8.261,0,0,0,2.775.987,16.554,16.554,0,0,0,2.727.247,17.749,17.749,0,0,0,2.489-.247,16.4,16.4,0,0,0,2.392-.494Z" transform="translate(-5.742 -46.154)"/>
    <path class="a" d="M484.121,106.907a25.79,25.79,0,0,1,4.163-.864,33.242,33.242,0,0,1,3.971-.248,33.783,33.783,0,0,1,3.924.248,23.356,23.356,0,0,1,4.114.864v34.325q0,7.408,1.915,10.125a6.653,6.653,0,0,0,5.837,2.716,18.716,18.716,0,0,0,2.488-.123,8.12,8.12,0,0,0,1.244-.247v-46.8a25.813,25.813,0,0,1,4.163-.864,33.242,33.242,0,0,1,3.971-.248,33.756,33.756,0,0,1,3.924.248,23.386,23.386,0,0,1,4.115.864v60.872a39.1,39.1,0,0,1-3.876,1.482q-2.25.741-4.785,1.42a43.2,43.2,0,0,1-5.215,1.049,38.412,38.412,0,0,1-5.263.371,43.577,43.577,0,0,1-9.379-.989,17.2,17.2,0,0,1-7.9-4.012,20.552,20.552,0,0,1-5.407-8.767q-2.009-5.74-2.009-15.372Z" transform="translate(-5.742 -46.154)"/>
    <path class="a" d="M538.667,107.154q4.5-.741,9.33-1.235a90.446,90.446,0,0,1,9.139-.494q11.577,0,17.369,5.618t5.789,15.743a29.379,29.379,0,0,1-.669,6.667A25.153,25.153,0,0,1,578,138.331a14.706,14.706,0,0,1-2.01,3.272q-1.053,1.236-1.722,1.975L585.175,170.5a29.85,29.85,0,0,1-4.258.741,43.608,43.608,0,0,1-4.546.247q-2.681,0-5.167-.247a22.122,22.122,0,0,1-4.116-.741l-10.622-29.139,1.34-.988a13.741,13.741,0,0,0,4.593-5.248,14.485,14.485,0,0,0,1.245-5.988,8.7,8.7,0,0,0-1.484-5.248,5.467,5.467,0,0,0-4.737-2.037,11.835,11.835,0,0,0-2.775.247v48.525a30.671,30.671,0,0,1-4.5.8q-2.008.186-3.541.185-1.628,0-3.54-.185a31.057,31.057,0,0,1-4.4-.8Z" transform="translate(-5.742 -46.154)"/>
    <path class="a" d="M588.813,106.907a25.79,25.79,0,0,1,4.163-.864,33.242,33.242,0,0,1,3.971-.248,33.783,33.783,0,0,1,3.924.248,23.356,23.356,0,0,1,4.114.864v34.325q0,7.408,1.914,10.125a6.656,6.656,0,0,0,5.838,2.716,18.716,18.716,0,0,0,2.488-.123,8.12,8.12,0,0,0,1.244-.247v-46.8a25.813,25.813,0,0,1,4.163-.864,33.242,33.242,0,0,1,3.971-.248,33.769,33.769,0,0,1,3.924.248,23.386,23.386,0,0,1,4.115.864v60.872a39.1,39.1,0,0,1-3.876,1.482q-2.25.741-4.785,1.42a43.2,43.2,0,0,1-5.215,1.049,38.415,38.415,0,0,1-5.264.371,43.574,43.574,0,0,1-9.378-.989,17.2,17.2,0,0,1-7.895-4.012,20.552,20.552,0,0,1-5.407-8.767q-2.01-5.74-2.009-15.372Z" transform="translate(-5.742 -46.154)"/>
    <path class="a" d="M653.12,145.061a18.181,18.181,0,0,1-8.422-6.3q-3.351-4.446-3.349-12.1a24.075,24.075,0,0,1,1.531-8.766,19.147,19.147,0,0,1,4.307-6.729,18.864,18.864,0,0,1,6.554-4.26,22.758,22.758,0,0,1,8.373-1.482,35.759,35.759,0,0,1,7.944.988,47.7,47.7,0,0,1,8.517,2.839,47.558,47.558,0,0,1-1.244,8.458,59.935,59.935,0,0,1-2.393,7.965,36.2,36.2,0,0,0-6.22-2.47,23.064,23.064,0,0,0-6.7-1.111q-4.5,0-4.5,3.21a2.411,2.411,0,0,0,1.053,2.1,10.283,10.283,0,0,0,2.391,1.235l6.221,2.1a27.132,27.132,0,0,1,5.216,2.408,14.231,14.231,0,0,1,4.018,3.642,17.092,17.092,0,0,1,2.633,5.433,27.586,27.586,0,0,1,.957,7.779,25.432,25.432,0,0,1-1.485,8.767,19.34,19.34,0,0,1-4.4,7.038,21,21,0,0,1-7.176,4.691,25.937,25.937,0,0,1-9.808,1.729,39.589,39.589,0,0,1-8.518-.865A38.918,38.918,0,0,1,640.3,168.4a61.318,61.318,0,0,1,3.541-17.04,25.442,25.442,0,0,0,6.412,2.779,25.044,25.044,0,0,0,6.7.926q1.149,0,2.391-.124a6.934,6.934,0,0,0,2.2-.556,4.369,4.369,0,0,0,1.58-1.173,2.972,2.972,0,0,0,.621-1.976,2.676,2.676,0,0,0-1.244-2.407,15.423,15.423,0,0,0-2.871-1.42Z" transform="translate(-5.742 -46.154)"/>
  </g>
  <g>
    <path class="a" d="M814.855,169.133c2.428-1.974,3.384-5.4,3.575-9.588-3.016,2.491-6.046,4.338-9.1,5.018Z" transform="translate(-5.742 -46.154)"/>
    <path class="a" d="M823.61,176.3c3.186-2.242,4.518-6.225,4.887-11.112-3.96,2.831-7.917,4.911-11.867,5.624Z" transform="translate(-5.742 -46.154)"/>
    <path class="a" d="M833.9,182.2c2.736-2.773,3.339-6.929,2.833-11.8-3.394,3.489-6.917,6.239-10.678,7.643Z" transform="translate(-5.742 -46.154)"/>
    <path class="a" d="M847.193,175.026c-3.22,3.65-6.607,6.567-10.295,8.152l8.037,3.775C847.534,184.05,847.935,179.87,847.193,175.026Z" transform="translate(-5.742 -46.154)"/>
    <path class="a" d="M850.892,170.4c7-.381,11.676-4.258,13.813-8.707l-7.742.392C857.078,163.993,853.962,167.2,850.892,170.4Z" transform="translate(-5.742 -46.154)"/>
    <path class="a" d="M845.993,161.69a10.037,10.037,0,0,1-5.877,7.443c6.175,2.03,10.868-2.276,12.929-6.855Z" transform="translate(-5.742 -46.154)"/>
    <path class="a" d="M830.9,167.911c5.639-.688,9.441-2.938,11.313-6.831l-6.47-.792C836.167,163.067,833.578,165.494,830.9,167.911Z" transform="translate(-5.742 -46.154)"/>
    <path class="b" d="M824.368,178.41c-7.33-5-29.717-23.527-44.076-39.349-1.5-1.455-2.927-2.978-4.28-4.548-1.1-1.275-2.163-2.58-3.307-3.815-.57-.616-1.159-1.215-1.78-1.78a12.974,12.974,0,0,0-1.7-1.354,34.269,34.269,0,0,0-4.055-2.448q-.635-.318-1.281-.608c-.133-.06-.266-.118-.4-.176l-.142-.063-.146-.057c-.712-.28-1.425-.552-2.148-.8-6.125-2.094-12.6-2.97-18.891-4.406a50.774,50.774,0,0,1-6.839-2.053,45.748,45.748,0,0,1-5.554-1.867,47.71,47.71,0,0,1-11.157-6.453c-1.584-1.232-3.051-2.6-4.509-3.971-.7-.662-1.374-1.346-2.052-2.027-7.68,2.4-11.379,9-9.726,17.215,3.219,15.992,21.578,38.073,32.683,47.08,5.734,3.982,28.35,6.483,48.833,16.415,19.106,9.265,33.031,24.11,42.218,24.11,19.036,0,22.974-9.839,22.974-14.289S833.327,184.515,824.368,178.41ZM746.5,153.519c-4.618,1.526-9.918-1.949-11.837-7.76s.269-11.758,4.887-13.284,9.918,1.949,11.837,7.761S751.115,151.994,746.5,153.519Z" transform="translate(-5.742 -46.154)"/>
    <path class="b" d="M820.513,81.74A70.289,70.289,0,0,0,804.2,59.124c-35.922-34.276-101.1,7-94.969,35.986,15.83,15.227,13.5,12.626,27.914,19.055s23.648,4.632,32.321,8.635,12.747,10.766,23.234,21.634,65.243,22.2,77.855,13.637C894.592,135.945,861.152,104.2,820.513,81.74Zm-17.7,35.4a11.474,11.474,0,0,1-6.489-1.951,13.17,13.17,0,0,1-4.157-2.977,16.445,16.445,0,0,1-3.647-6.747,63.416,63.416,0,0,1-.168-7.269c.077-2.877.242-5.751.289-8.629a28.724,28.724,0,0,0-.655-7.677A10.451,10.451,0,0,0,783.34,75.4a7.161,7.161,0,0,0-1.779-.786,7.538,7.538,0,0,0-.88-.342,4.088,4.088,0,0,0-4.721,1.7c-.057.008-.115.014-.17.025a15.017,15.017,0,0,0-.721,1.686c-.037.107-.065.214-.1.322a11.92,11.92,0,0,0-.87,4.271c-.15,1.468-.193,2.953-.242,4.487-.211,6.661-2.086,14.292-9.043,16.872-5.3,1.965-11.481-.165-15.043-4.406-3.9-4.647-4.435-11.161-2.779-16.839a27.763,27.763,0,0,1,6.284-11c4.135-5.122,9.9-8.2,17.029-9.491,5.133-.931,10.3-1.145,15.061,1.326a27.4,27.4,0,0,1,8.795,7.733q.777.922,1.48,1.911a39.366,39.366,0,0,1,5.606,11.84c.6,1.562,1.215,3.211,1.682,4.886a14.913,14.913,0,0,0,3.9,4.573c2.843,2.211,5.639,4.486,6.684,8.111C815.521,109.236,810.072,116.937,802.811,117.141Zm32.684,11.8c-4.681,7.176-13.7,2.244-17.5-2.958-1.923-2.635-3.382-5.9-2.1-9.131a6.341,6.341,0,0,1,3.481-3.585c2.688-1.71,6.165-1.349,8.977.08C833.5,115.97,839.257,123.178,835.5,128.946Zm30.568,10.675c-.286-.163-.567-.334-.839-.518q-.136-.093-.27-.189c-.025-.017-.13-.095-.2-.147-.082-.068-.3-.242-.352-.288-.415-.352-.814-.724-1.2-1.112-.675-.684-1.281-1.424-1.889-2.167-.105-.128-.352-.479-.12-.149-.134-.189-.274-.374-.406-.565-.265-.381-.515-.772-.755-1.169-.481-.8-.929-1.622-1.348-2.455-.285-.567-.551-1.142-.812-1.72-.654-1.909-1.224-3.842-1.841-5.767a19.77,19.77,0,0,0-2.256-5.023,2.176,2.176,0,0,1,.535,0c4.623.605,8.84,2.187,12.1,5.639,2.635,2.791,6.37,8.313,5.316,12.356C870.876,139.614,868.5,140.254,866.063,139.621Z" transform="translate(-5.742 -46.154)"/>
  </g>
</svg>
