<svg xmlns="http://www.w3.org/2000/svg" viewBox="0 0 314.378 286.987">
  <defs>
    <style>
      .a {
        fill: #fff;
      }
    </style>
  </defs>
  <g>
    <path class="a" d="M225.113,212.558c5.429-1.209,10.818-4.5,16.186-8.927-.34,7.446-2.041,13.547-6.361,17.058Z" transform="translate(-34.03 -1.885)"/>
    <path class="a" d="M238.1,223.672c7.029-1.268,14.069-4.968,21.114-10-.656,8.695-3.026,15.781-8.694,19.771Z" transform="translate(-34.03 -1.885)"/>
    <path class="a" d="M254.867,236.536c6.692-2.5,12.962-7.39,19-13.6.9,8.673-.172,16.068-5.041,21Z" transform="translate(-34.03 -1.885)"/>
    <path class="a" d="M274.156,245.677c6.562-2.819,12.588-8.009,18.317-14.5,1.32,8.619.607,16.056-4.017,21.221Z" transform="translate(-34.03 -1.885)"/>
    <path class="a" d="M309.856,208.143c.2,3.4-5.34,9.114-10.8,14.794,12.464-.677,20.774-7.576,24.576-15.491Z" transform="translate(-34.03 -1.885)"/>
    <path class="a" d="M290.338,207.446c-.525,5.32-5.369,11.261-10.456,13.243,10.987,3.613,19.336-4.05,23-12.2Z" transform="translate(-34.03 -1.885)"/>
    <path class="a" d="M272.1,204.952c.758,4.944-3.848,9.263-8.617,13.564,10.033-1.224,16.8-5.229,20.128-12.154Z" transform="translate(-34.03 -1.885)"/>
  </g>
  <g>
    <path class="a" d="M68.708,101.269q.23.175.461.349.614.464,1.234.917,2.607,1.91,5.317,3.674A132.742,132.742,0,0,0,95.25,116.7c.116.05.941.4.955.41q.632.264,1.265.522,1.246.508,2.5,1,2.727,1.059,5.486,2.026c3.76,1.321,7.456,2.633,11.306,3.684.479.131.957.249,1.435.375,4.06.281,8.127.459,12.193.589,1.65.053,3.3.1,4.95.153-23.109-17.038-50.466-23.819-67.3-24.712.1.081.2.166.3.246S68.63,101.21,68.708,101.269Z" transform="translate(-34.03 -1.885)"/>
    <path class="a" d="M251.862,237.2c-13.04-8.887-52.872-41.86-78.419-70.011-2.662-2.587-5.207-5.3-7.616-8.091-1.954-2.268-3.848-4.59-5.883-6.788-1.014-1.1-2.063-2.161-3.167-3.166a23.145,23.145,0,0,0-3.029-2.41,60.9,60.9,0,0,0-7.216-4.355q-1.128-.565-2.28-1.082c-.236-.106-.473-.21-.709-.313l-.252-.112-.261-.1c-1.266-.5-2.534-.983-3.822-1.424-10.9-3.726-22.413-5.284-33.609-7.84a89.78,89.78,0,0,1-12.168-3.652,81.176,81.176,0,0,1-9.882-3.322A84.9,84.9,0,0,1,63.7,113.047c-2.817-2.191-5.428-4.618-8.022-7.066-1.247-1.176-2.445-2.394-3.651-3.6-13.664,4.274-20.246,16.014-17.3,30.629,5.728,28.452,38.391,67.739,58.149,83.764,10.2,7.085,50.441,11.536,86.885,29.207,33.994,16.483,58.768,42.9,75.113,42.9,33.869,0,40.876-17.5,40.876-25.424S267.8,248.057,251.862,237.2ZM113.314,192.909c-8.217,2.714-17.646-3.468-21.06-13.807s.478-20.921,8.695-23.634,17.646,3.468,21.06,13.807S121.531,190.2,113.314,192.909Z" transform="translate(-34.03 -1.885)"/>
  </g>
  <path class="a" d="M245.005,65.2a125.08,125.08,0,0,0-29.03-40.239C152.062-36.023,36.091,37.415,47,88.987c28.167,27.092,24.028,22.464,49.667,33.9s42.073,8.242,57.5,15.364,22.678,19.155,41.338,38.492,116.081,39.491,138.52,24.263C376.807,161.641,317.31,105.153,245.005,65.2Zm-31.5,62.986a20.406,20.406,0,0,1-11.547-3.472,23.413,23.413,0,0,1-7.394-5.3,29.261,29.261,0,0,1-6.49-12,113.178,113.178,0,0,1-.3-12.932c.137-5.119.431-10.233.515-15.354a51.053,51.053,0,0,0-1.166-13.658,18.591,18.591,0,0,0-8.262-11.55,12.738,12.738,0,0,0-3.165-1.4,13.347,13.347,0,0,0-1.566-.609,7.276,7.276,0,0,0-8.4,3.024c-.1.016-.2.025-.3.046a26.671,26.671,0,0,0-1.282,3c-.066.192-.115.382-.177.573a21.194,21.194,0,0,0-1.549,7.6c-.268,2.611-.343,5.254-.43,7.984-.376,11.851-3.712,25.427-16.091,30.018-9.427,3.5-20.426-.294-26.764-7.839-6.946-8.269-7.891-19.859-4.944-29.96a49.389,49.389,0,0,1,11.181-19.568c7.357-9.113,17.611-14.585,30.3-16.886,9.133-1.656,18.332-2.037,26.8,2.359,6.2,3.22,11.384,8.245,15.647,13.759.921,1.094,1.8,2.226,2.634,3.4a69.981,69.981,0,0,1,9.973,21.065c1.059,2.78,2.162,5.714,2.994,8.694a26.52,26.52,0,0,0,6.943,8.136c5.059,3.934,10.034,7.982,11.893,14.431C236.122,114.119,226.427,127.821,213.509,128.185Zm58.151,21c-8.328,12.767-24.381,3.992-31.139-5.264-3.423-4.688-6.018-10.5-3.738-16.245a11.28,11.28,0,0,1,6.193-6.379c4.782-3.042,10.968-2.4,15.972.142C268.115,126.1,278.354,138.926,271.66,149.189Zm54.387,18.992c-.508-.291-1.009-.594-1.494-.922q-.241-.165-.48-.335c-.044-.031-.231-.17-.357-.262-.146-.121-.529-.43-.626-.512-.739-.627-1.449-1.289-2.129-1.979-1.2-1.217-2.28-2.535-3.362-3.856-.186-.227-.627-.852-.214-.264-.237-.338-.487-.666-.722-1q-.705-1.019-1.343-2.082c-.856-1.422-1.653-2.884-2.4-4.367-.507-1.009-.98-2.032-1.444-3.059-1.164-3.4-2.177-6.836-3.275-10.262a35.185,35.185,0,0,0-4.014-8.936,3.788,3.788,0,0,1,.952,0c8.224,1.076,15.727,3.892,21.527,10.034,4.688,4.965,11.332,14.79,9.458,21.982C334.611,168.168,330.384,169.307,326.047,168.181Z" transform="translate(-34.03 -1.885)"/>
</svg>
