<svg xmlns="http://www.w3.org/2000/svg" viewBox="0 0 878.631 161.301">
  <defs>
    <style>
      .a {
        font-size: 123.473px;
        font-family: AllerDisplay-Regular, Aller Display;
      }

      .a, .d {
        fill: #eae3d8;
      }

      .b {
        letter-spacing: -0.01em;
      }

      .c {
        letter-spacing: -0.02em;
      }

      .e {
        fill: #fff;
      }
    </style>
  </defs>
  <text class="a" transform="translate(0 124.588) scale(0.775 1)">Ide<tspan class="b" x="173.23" y="0">n</tspan><tspan x="241.757" y="0">tifiasau</tspan><tspan class="c" x="688.103" y="0">r</tspan><tspan x="753.421" y="0">us</tspan></text>
  <g>
    <path class="d" d="M814.855,169.133c2.428-1.974,3.384-5.4,3.575-9.588-3.016,2.491-6.046,4.338-9.1,5.018Z" transform="translate(0 -46.154)"/>
    <path class="d" d="M823.61,176.3c3.186-2.242,4.518-6.225,4.887-11.112-3.96,2.831-7.917,4.911-11.867,5.624Z" transform="translate(0 -46.154)"/>
    <path class="d" d="M833.9,182.2c2.736-2.773,3.339-6.929,2.833-11.8-3.394,3.489-6.917,6.239-10.678,7.643Z" transform="translate(0 -46.154)"/>
    <path class="d" d="M847.193,175.026c-3.22,3.65-6.607,6.567-10.295,8.152l8.037,3.775C847.534,184.05,847.935,179.87,847.193,175.026Z" transform="translate(0 -46.154)"/>
    <path class="d" d="M850.892,170.4c7-.381,11.676-4.258,13.813-8.707l-7.742.392C857.078,163.993,853.962,167.2,850.892,170.4Z" transform="translate(0 -46.154)"/>
    <path class="d" d="M845.993,161.69a10.037,10.037,0,0,1-5.877,7.443c6.175,2.03,10.868-2.276,12.929-6.855Z" transform="translate(0 -46.154)"/>
    <path class="d" d="M830.9,167.911c5.639-.688,9.441-2.938,11.313-6.831l-6.47-.792C836.167,163.067,833.578,165.494,830.9,167.911Z" transform="translate(0 -46.154)"/>
    <path class="e" d="M824.368,178.41c-7.33-5-29.717-23.527-44.076-39.349-1.5-1.455-2.927-2.978-4.28-4.548-1.1-1.275-2.163-2.58-3.307-3.815-.57-.616-1.159-1.215-1.78-1.78a12.974,12.974,0,0,0-1.7-1.354,34.269,34.269,0,0,0-4.055-2.448q-.635-.318-1.281-.608c-.133-.06-.266-.118-.4-.176l-.142-.063-.146-.057c-.712-.28-1.425-.552-2.148-.8-6.125-2.094-12.6-2.97-18.891-4.406a50.774,50.774,0,0,1-6.839-2.053,45.748,45.748,0,0,1-5.554-1.867,47.71,47.71,0,0,1-11.157-6.453c-1.584-1.232-3.051-2.6-4.509-3.971-.7-.662-1.374-1.346-2.052-2.027-7.68,2.4-11.379,9-9.726,17.215,3.219,15.992,21.578,38.073,32.683,47.08,5.734,3.982,28.35,6.483,48.833,16.415,19.106,9.265,33.031,24.11,42.218,24.11,19.036,0,22.974-9.839,22.974-14.289S833.327,184.515,824.368,178.41ZM746.5,153.519c-4.618,1.526-9.918-1.949-11.837-7.76s.269-11.758,4.887-13.284,9.918,1.949,11.837,7.761S751.115,151.994,746.5,153.519Z" transform="translate(0 -46.154)"/>
    <path class="e" d="M820.513,81.74A70.289,70.289,0,0,0,804.2,59.124c-35.922-34.276-101.1,7-94.969,35.986,15.83,15.227,13.5,12.626,27.914,19.055s23.648,4.632,32.321,8.635,12.747,10.766,23.234,21.634,65.243,22.2,77.855,13.637C894.592,135.945,861.152,104.2,820.513,81.74Zm-17.7,35.4a11.474,11.474,0,0,1-6.489-1.951,13.17,13.17,0,0,1-4.157-2.977,16.445,16.445,0,0,1-3.647-6.747,63.416,63.416,0,0,1-.168-7.269c.077-2.877.242-5.751.289-8.629a28.724,28.724,0,0,0-.655-7.677A10.451,10.451,0,0,0,783.34,75.4a7.161,7.161,0,0,0-1.779-.786,7.538,7.538,0,0,0-.88-.342,4.088,4.088,0,0,0-4.721,1.7c-.057.008-.115.014-.17.025a15.017,15.017,0,0,0-.721,1.686c-.037.107-.065.214-.1.322a11.92,11.92,0,0,0-.87,4.271c-.15,1.468-.193,2.953-.242,4.487-.211,6.661-2.086,14.292-9.043,16.872-5.3,1.965-11.481-.165-15.043-4.406-3.9-4.647-4.435-11.161-2.779-16.839a27.763,27.763,0,0,1,6.284-11c4.135-5.122,9.9-8.2,17.029-9.491,5.133-.931,10.3-1.145,15.061,1.326a27.4,27.4,0,0,1,8.795,7.733q.777.922,1.48,1.911a39.366,39.366,0,0,1,5.606,11.84c.6,1.562,1.215,3.211,1.682,4.886a14.913,14.913,0,0,0,3.9,4.573c2.843,2.211,5.639,4.486,6.684,8.111C815.521,109.236,810.072,116.937,802.811,117.141Zm32.684,11.8c-4.681,7.176-13.7,2.244-17.5-2.958-1.923-2.635-3.382-5.9-2.1-9.131a6.341,6.341,0,0,1,3.481-3.585c2.688-1.71,6.165-1.349,8.977.08C833.5,115.97,839.257,123.178,835.5,128.946Zm30.568,10.675c-.286-.163-.567-.334-.839-.518q-.136-.093-.27-.189c-.025-.017-.13-.095-.2-.147-.082-.068-.3-.242-.352-.288-.415-.352-.814-.724-1.2-1.112-.675-.684-1.281-1.424-1.889-2.167-.105-.128-.352-.479-.12-.149-.134-.189-.274-.374-.406-.565-.265-.381-.515-.772-.755-1.169-.481-.8-.929-1.622-1.348-2.455-.285-.567-.551-1.142-.812-1.72-.654-1.909-1.224-3.842-1.841-5.767a19.77,19.77,0,0,0-2.256-5.023,2.176,2.176,0,0,1,.535,0c4.623.605,8.84,2.187,12.1,5.639,2.635,2.791,6.37,8.313,5.316,12.356C870.876,139.614,868.5,140.254,866.063,139.621Z" transform="translate(0 -46.154)"/>
  </g>
</svg>
