<svg xmlns="http://www.w3.org/2000/svg" viewBox="0 0 384.344 302.363">
  <defs>
    <style>
      .a {
        fill: #fff;
      }
    </style>
  </defs>
  <path class="a" d="M88.406.016V62.965q0,89.205.114,178.411c.013,4.425-1.462,6.813-5.047,9.164C58.829,266.7,34.336,283.083,9.8,299.4c-.693.461-1.359.966-2.07,1.4-4.966,3.016-7.491,1.7-7.52-4.124-.078-15.159-.04-30.318-.04-45.478,0-59.47.164-118.942-.164-178.411C-.055,62.7,3.216,56,11.792,50.507,35.762,35.153,59.3,19.12,83.01,3.366,84.5,2.379,86.041,1.48,88.406.016Z"/>
  <path class="a" d="M297.381.824c2.816,1.811,5.159,3.277,7.46,4.805Q340.2,29.121,375.575,52.6c5.944,3.922,8.776,9.1,8.769,16.261q-.113,112.442-.055,224.883a41.288,41.288,0,0,1-.055,4.494c-.434,3.932-2.643,5.068-6.261,3.272a24.127,24.127,0,0,1-2.543-1.582q-37.443-24.87-74.906-49.71c-2.261-1.494-3.441-2.988-3.437-5.946q.141-119.937.083-239.874C297.17,3.451,297.278,2.508,297.381.824Z"/>
  <path class="a" d="M184.937,300.569c-6.605-4.387-12.411-8.241-18.215-12.1-19.557-13-39.153-25.937-58.6-39.093-1.729-1.169-3.574-3.736-3.578-5.658q-.267-120.229-.145-240.461c0-.8.1-1.6.184-2.969,1.608.869,2.913,1.448,4.085,2.226q36.421,24.18,72.842,48.361c2.4,1.586,3.7,3.156,3.692,6.313q-.151,119.731-.086,239.463C185.113,297.62,185.029,298.587,184.937,300.569Z"/>
  <path class="a" d="M201.1,300.06c0-23.606,0-46.254,0-68.9q.009-86.475-.08-172.949c-.009-4,1.309-6.223,4.567-8.364,23.52-15.453,46.909-31.1,70.35-46.677,1.473-.979,3.027-1.837,5.238-3.169V29.055q-.009,106.469.075,212.937c.007,3.812-1.172,5.939-4.329,8.011-23.668,15.529-47.2,31.266-70.78,46.928C204.79,297.831,203.381,298.65,201.1,300.06Z"/>
</svg>
