<svg xmlns="http://www.w3.org/2000/svg" viewBox="0 0 319.989 319.985">
  <defs>
    <style>
      .a {
        fill: #423e37;
      }
    </style>
  </defs>
  <path class="a" d="M0,160.129C-.078,71.094,71.445.055,161.222,0c86.614-.053,158.73,71.981,158.767,158.584.037,89.54-70.959,161.4-159.468,161.4A159.826,159.826,0,0,1,0,160.129Zm272.125,90.479C313.76,203.042,321.3,114.9,260.478,56.035,198.777-3.68,100.993,2.628,46.9,69.954c-50.444,62.782-33.547,143.153.947,180.153a5.369,5.369,0,0,0,.457-.871c.253-.792.467-1.6.681-2.4q15.186-57.011,69.805-79.315a10.91,10.91,0,0,1,9.819.314c20.958,10.007,42.142,9.916,63.089-.125a10.027,10.027,0,0,1,8.9-.461q52.679,21.285,69.363,75.559C270.725,245.319,271.367,247.867,272.125,250.608Z"/>
  <path class="a" d="M160.177,45.8a56.828,56.828,0,0,1,56.953,56.737c-.037,32.069-25.461,57.561-57.311,57.463a57.1,57.1,0,1,1,.358-114.2Z"/>
</svg>
