<?xml version="1.0" encoding="utf-8"?>
<!-- Generator: Adobe Illustrator 25.1.0, SVG Export Plug-In . SVG Version: 6.00 Build 0)  -->
<svg version="1.1" xmlns="http://www.w3.org/2000/svg" xmlns:xlink="http://www.w3.org/1999/xlink" x="0px" y="0px"
	 viewBox="0 0 392 392" style="enable-background:new 0 0 392 392;" xml:space="preserve">
<style type="text/css">
	.st0{fill:#BC5353;}
	.st1{fill:#FFFFFF;}
</style>
<g id="Layer_2">
	<circle class="st0" cx="196" cy="196" r="196"/>
</g>
<g id="Layer_1">
	<path class="st1" d="M271.1,165.3c-2-0.4-4-0.6-6-0.5c-4.2,0-8.5,0-12.7,0H160c-11.4,0-22.6,0-33.8,0c-5.8-0.1-11.4,2.1-15.7,6
		c-7,6.4-9.4,16.4-6.1,25.3c3.3,9.1,11.6,14.9,22.1,15c13.8,0.1,27.6,0,41.4,0.1c0.3,0,0.5,0,0.8,0h50.4v0h5.2c13.7,0,27.3,0.1,41,0
		c9.4-0.1,16.6-4,21.1-12.5c1.1-2,1.8-4.2,2.6-6.3l0-8.6C286.3,174.5,281.1,167.5,271.1,165.3z"/>
</g>
</svg>
