<svg xmlns="http://www.w3.org/2000/svg" viewBox="0 0 312.008 311.945">
  <defs>
    <style>
      .a {
        fill: #fff;
      }
    </style>
  </defs>
  <path class="a" d="M106.664,0h13.405c5,.7,10.059,1.14,15,2.139a111.839,111.839,0,0,1,55.572,28.407c22.524,21.167,34.371,47.365,35.891,78.082A108.78,108.78,0,0,1,213.291,166.6c-1.178,2.178-.953,3.37.8,5.11,27.979,27.852,55.792,55.869,83.85,83.641,6.845,6.776,12.77,13.8,14.072,23.718v6.094c-.174.576-.4,1.143-.513,1.731-2.339,11.877-9.085,20.061-20.716,23.585-11.849,3.59-22.214.464-30.914-8.229q-44.172-44.131-88.281-88.324c-1.471-1.475-2.508-1.972-4.586-.848a111.622,111.622,0,0,1-45.491,13.186c-20.428,1.5-39.961-2.025-58.112-11.288C28.955,197.4,8.244,169.329,1.577,131.15A108.783,108.783,0,0,1,5.087,80,111.325,111.325,0,0,1,40.828,26.3,105.49,105.49,0,0,1,83.4,4.222C91.036,2.331,98.9,1.378,106.664,0Zm88.112,113.456C195.1,68.867,158.827,32.181,113.562,32A80.865,80.865,0,0,0,32.034,113.06c-.224,44.805,35.372,81.367,81.284,81.654C158.049,194.993,194.448,158.558,194.776,113.456Z" transform="translate(0 0)"/>
</svg>
