<svg xmlns="http://www.w3.org/2000/svg" viewBox="0 0 431 431">
  <defs>
    <style>
      .a {
        fill: #79b473;
      }

      .b {
        fill: #fff;
      }
    </style>
  </defs>
  <circle class="a" cx="215.5" cy="215.5" r="215.5"/>
  <path class="b" d="M334.4,159.8a42.047,42.047,0,0,1-3.844,5.21q-65.713,65.7-131.51,131.313c-4.566,4.557-8.045,4.6-12.513-.01q-37.029-38.2-73.99-76.475a30.48,30.48,0,0,1-2.933-4.28v-3.512a60.275,60.275,0,0,1,4.521-5.2c5.637-5.212,11.393-10.3,17.1-15.43,4.317-3.88,7.653-3.753,11.767.436q21.829,22.23,43.661,44.458c4.3,4.375,7.825,4.39,12.185.051l102.482-102c4.393-4.373,7.848-4.367,12.217.027,5.673,5.7,11.387,11.369,16.979,17.152a49.034,49.034,0,0,1,3.874,5.191Z"/>
</svg>
